<?xml version="1.0" encoding="UTF-8" standalone="no"?>
<svg
   width="931.73468"
   height="870.31567"
   version="1.1"
   id="svg82"
   xmlns="http://www.w3.org/2000/svg"
   xmlns:svg="http://www.w3.org/2000/svg">
  <path
     fill="#f8ebea"
     d="m 39.501099,214.60111 c 1.8255,-0.128 3.604,-0.322 5.309,0.5 1.5791,0.761 2.5297,1.794 3.0619,3.498 1.1585,3.708 -1.3453,7.722 -3.0262,10.829 q -0.8317,0.255 -1.6782,0.455 c -1.4673,0.332 -3.0125,0.34 -4.2678,-0.624 -1.2994,-0.998 -1.9271,-2.567 -2.1551,-4.141 -0.5462,-3.77 0.4749,-7.515 2.7564,-10.517 z"
     id="path2" />
  <path
     fill="#fcd1d0"
     d="m 155.101,49.345111 c 1.499,0.105 2.953,0.21 4.329,0.867 1.356,0.648 2.519,1.688 2.87,3.204 0.341,1.477 -0.406,3.168 -1.164,4.412 -2.784,4.57 -6.863,5.545 -11.668,6.822 -0.593,-0.291 -1.105,-0.617 -1.636,-1.012 -2.316,-1.722 -4.288,-3.553 -4.647,-6.565 -0.193,-1.62 -0.162,-3.579 0.971,-4.86 1.49,-1.685 7.116,-0.949 9.266,-0.913 z"
     id="path3" />
  <path
     fill="#fcd1d0"
     d="m 819.355,782.96711 c 0.881,-0.049 1.755,-0.09 2.638,-0.033 1.495,0.096 2.153,0.671 3.087,1.75 0.763,0.881 1.43,1.53 2.354,2.239 1.727,0.483 3.348,-0.257 5.021,-0.684 1.909,-0.488 4.03,-0.651 5.708,0.606 1.103,0.826 1.503,2.059 1.539,3.393 0.145,5.287 -2.799,9.416 -6.183,13.111 -2.233,1.931 -4.255,3.556 -6.889,4.931 -2.944,-2.566 -5.902,-5.303 -8.158,-8.512 -2.237,-3.181 -4.159,-7.066 -3.326,-11.054 0.62,-2.965 1.748,-4.079 4.209,-5.747 z"
     id="path4" />
  <path
     fill="#61abbf"
     d="m 60.740499,628.91711 c 11.7546,-0.016 23.5605,-0.306 35.2995,0.374 -2.243,0.369 -5.54,-0.52 -7.441,0.627 -0.742,1.298 -0.596,2.199 -0.461,3.617 l 0.656,0.859 c 2.125,0.054 4.244,0.097 6.363,0.263 -8.538,0.92 -17.055,0.433 -25.617,0.685 q -17.2535,-0.447 -34.5127,-0.358 c -6.2212,0.033 -12.8273,0.543 -19.0108,-0.117 -2.21,-0.236 -3.9604,-0.476 -5.412,-2.254 0.179,-1.101 0.2663,-1.685 1.2302,-2.432 1.0554,-0.818 2.8297,-0.942 4.1018,-1.031 4.1345,-0.289 8.4799,0.165 12.654,0.134 z"
     id="path5" />
  <path
     fill="#fcd1d0"
     d="m 69.047499,741.11211 c 2.3255,0.071 4.5263,0.462 6.8095,0.865 3.811,3.161 4.34,6.715 7.127,10.384 1.721,-0.28 3.725,-0.729 5.466,-0.493 1.723,0.233 3.16,1.145 4.18,2.541 1.121,1.534 1.732,3.496 1.3,5.38 -1.056,4.614 -5.851,7.34 -9.576,9.622 l -5.347,3.174 c -4.676,-5.127 -9.0787,-6.116 -14.5668,-9.669 -2.626,-1.7 -4.5335,-4.259 -5.1105,-7.363 -0.6604,-3.553 0.5589,-8.08 2.6722,-10.981 1.7545,-2.408 4.2555,-3.011 7.0456,-3.46 z"
     id="path6" />
  <path
     fill="#fcd1d0"
     d="m 92.042999,116.63211 q 0.538,0.035 1.074,0.088 c 3.802,0.392 6.979001,2.122 9.299001,5.184 7.112,9.392 4.571,24.689 3.235,35.538 -8.548001,4.238 -19.351001,4.902 -28.561001,2.819 -4.9184,-1.113 -9.6645,-3.308 -12.9303,-7.267 -2.7904,-3.382 -4.2217,-7.633 -3.6816,-12.018 q 0.0816,-0.7 0.2337,-1.388 0.152,-0.688 0.3729,-1.358 0.2208,-0.669 0.5083,-1.312 0.2874,-0.644 0.6384,-1.255 0.3511,-0.611 0.7622,-1.183 0.411,-0.573 0.8779,-1.101 0.4669,-0.528 0.9847,-1.006 0.5179,-0.478 1.0815,-0.901 c 4.2336,-3.145 8.8513,-3.142 13.8113,-2.442 0.724,-2.971 1.359,-6.457 3.378,-8.849 2.377,-2.817 5.496,-3.167 8.916,-3.549 z"
     id="path7" />
  <path
     fill="#cdf8f0"
     d="m 52.314299,282.49211 48.270701,0.541 0.543,0.092 c 2.97,0.485 6.231,0.089 9.037,1.137 l 0.65,0.909 c -0.5,1.452 -1.626,2.261 -2.989,2.881 -1.895,0.861 -4.066,1.07 -6.11,1.349 6.696,0.184 13.447,0.033 20.123,0.593 -0.649,19.548 -2.299,39.039 -2.699,58.606 -0.304,0.912 -0.566,1.873 -0.944,2.756 -7.752,-0.886 -16.154,0.072 -23.971001,0.004 l -41.4043,0.017 c -7.2903,-0.022 -14.5662,-0.352 -21.8582,-0.22 0.4523,-4.205 1.8563,-8.728 2.8939,-12.837 q 2.5819,-10.524 5.7995,-20.872 c 2.9861,-9.288 6.3924,-18.227 8.1585,-27.858 -9.6564,-0.215 -24.5025,1.118 -33.3471,-0.314 -1.9945,-0.586 -2.7037,-0.959 -3.9034,-2.673 -0.0803,-1.067 -0.1885,-1.513 0.7151,-2.303 3.7186,-3.251 34.2922,-1.795 41.0353,-1.808 z"
     id="path8" />
  <defs
     id="defs9">
    <linearGradient
       id="gradient_0"
       gradientUnits="userSpaceOnUse"
       x1="81.410255"
       y1="368.33081"
       x2="91.83828"
       y2="399.92209"
       gradientTransform="translate(-25.728001,-98.535889)">
      <stop
         offset="0"
         stop-color="#5CA9B8"
         id="stop8" />
      <stop
         offset="1"
         stop-color="#8ED0DC"
         id="stop9" />
    </linearGradient>
  </defs>
  <path
     fill="url(#gradient_0)"
     d="m 52.314299,282.49211 48.270701,0.541 0.543,0.092 c 2.97,0.485 6.231,0.089 9.037,1.137 l 0.65,0.909 c -0.5,1.452 -1.626,2.261 -2.989,2.881 -1.895,0.861 -4.066,1.07 -6.11,1.349 -13.771001,-0.082 -27.555401,0.189 -41.323901,-0.05 -15.2091,-0.263 -30.7294,-1.013 -45.9248,-0.075 -1.9945,-0.586 -2.7037,-0.959 -3.9034,-2.673 -0.0803,-1.067 -0.1885,-1.513 0.7151,-2.303 3.7186,-3.251 34.2922,-1.795 41.0353,-1.808 z"
     id="path9"
     style="fill:url(#gradient_0)" />
  <path
     fill="#cdf8f0"
     d="m 119.14,348.60011 0.319,2.102 c 1.144,0.809 1.662,0.973 3.078,0.742 0.654,-0.106 1.038,-0.224 1.653,-0.391 1.473,0.476 2.773,0.481 4.298,0.49 l 0.456,0.774 c -1.505,0.194 -2.869,-0.688 -4.132,0.119 -0.576,1.505 -0.741,1.874 -0.52,3.528 0.823,1.013 1.26,1.312 2.506,1.701 -1.278,0.113 -2.556,0.106 -3.704,0.733 -1.737,-0.077 -2.562,-0.317 -4.108,0.534 -0.865,1.877 -0.417,4.166 -0.627,6.191 -0.325,10.743 -1.011,21.572 -1.063,32.314 0.018,4.54 0.268,9.247 -0.461,13.738 q -0.455,14.846 -0.624,29.697 c -1.326,8.564 -0.289,17.911 -0.481,26.593 l -79.949901,0.191 c -8.0937,0.009 -20.9452,1.376 -28.4020996,0.05 2.9960996,-1.137 10.5000996,-0.38 13.9979996,-0.384 -0.7794,-22.259 -0.8309,-45.431 1.3932,-67.606 1.3871,-13.83 4.277,-27.457 5.5531,-41.303 -5.9879,-0.012 -13.4952,0.935 -19.3094996,-0.17 -1.4873,-0.282 -2.9408,-0.857 -3.6356,-2.33 -0.5102,-1.081 -0.3435,-1.485 0.1272,-2.449 4.6928996,-3.606 19.1596996,-2.1 25.4580996,-2.307 7.292,-0.132 14.5679,0.198 21.8582,0.22 l 41.4043,-0.017 c 7.817001,0.068 16.219001,-0.89 23.971001,-0.004 0.378,-0.883 0.64,-1.844 0.944,-2.756 z"
     id="path10" />
  <path
     fill="#61abbf"
     d="m 117.296,397.43711 c 0.018,4.54 0.268,9.247 -0.461,13.738 -0.215,-2.711 -0.005,-5.518 0.055,-8.239 -23.539001,-0.551 -47.213901,-0.006 -70.765101,0.084 -3.5002,0.013 -9.5435,0.734 -12.1834,-1.885 -0.2149,-1.358 -0.0345,-1.501 0.5942,-2.751 0.7068,-0.599 1.1581,-0.793 2.0803,-0.918 8.2746,-1.116 17.831,-0.195 26.228,-0.158 z"
     id="path11" />
  <path
     fill="#61abbf"
     d="m 119.14,348.60011 0.319,2.102 c 1.144,0.809 1.662,0.973 3.078,0.742 0.654,-0.106 1.038,-0.224 1.653,-0.391 1.473,0.476 2.773,0.481 4.298,0.49 l 0.456,0.774 c -1.505,0.194 -2.869,-0.688 -4.132,0.119 -0.576,1.505 -0.741,1.874 -0.52,3.528 0.823,1.013 1.26,1.312 2.506,1.701 -1.278,0.113 -2.556,0.106 -3.704,0.733 -1.737,-0.077 -2.562,-0.317 -4.108,0.534 -0.865,1.877 -0.417,4.166 -0.627,6.191 l -0.216,-6.911 c -29.904001,-0.365 -59.904101,0.226 -89.820701,0.201 -5.9879,-0.012 -13.4952,0.935 -19.3094996,-0.17 -1.4873,-0.282 -2.9408,-0.857 -3.6356,-2.33 -0.5102,-1.081 -0.3435,-1.485 0.1272,-2.449 4.6928996,-3.606 19.1596996,-2.1 25.4580996,-2.307 7.292,-0.132 14.5679,0.198 21.8582,0.22 l 41.4043,-0.017 c 7.817001,0.068 16.219001,-0.89 23.971001,-0.004 0.378,-0.883 0.64,-1.844 0.944,-2.756 z"
     id="path12" />
  <path
     fill="#cdf8f0"
     d="m 32.577299,540.48711 60.1537,0.27 c 7.793001,-0.014 15.740001,0.344 23.516001,-0.033 q 0.382,11.248 0.577,22.501 c -5.553,1.418 -10.628,2.995 -13.71,8.284 -4.260001,7.309 -3.906001,19.803 -1.613,27.73 2.243,7.751 7.772,13.891 14.78,17.71 14.348,7.82 35.975,4.485 51.844,5.138 q 0.023,1.231 0.076,2.462 0.054,1.23 0.137,2.459 0.084,1.229 0.198,2.455 0.114,1.226 0.258,2.449 0.144,1.224 0.318,2.443 0.174,1.219 0.378,2.433 0.204,1.215 0.438,2.424 0.234,1.209 0.498,2.412 0.263,1.203 0.557,2.4 0.293,1.196 0.615,2.384 0.323,1.189 0.675,2.369 0.351,1.181 0.732,2.352 0.381,1.171 0.79,2.333 0.409,1.161 0.847,2.312 0.438,1.151 0.904,2.291 0.466,1.14 0.96,2.269 0.494,1.128 1.016,2.243 0.522,1.116 1.07,2.218 0.549,1.103 1.125,2.192 0.576,1.088 1.179,2.162 0.602,1.074 1.231,2.133 0.629,1.059 1.284,2.102 0.654,1.044 1.335,2.07 0.68,1.027 1.385,2.037 0.705,1.009 1.435,2.001 0.73,0.992 1.484,1.966 0.754,0.974 1.532,1.928 0.778,0.955 1.579,1.891 0.801,0.935 1.625,1.851 0.824,0.915 1.671,1.81 0.846,0.895 1.714,1.768 0.868,0.874 1.757,1.726 3.51,3.372 7.341,6.374 3.832,3.002 7.946,5.603 l -0.294,0.465 -0.518,0.054 0.092,0.272 c -15.057,2.104 -30.727,1.667 -45.911,2.553 -16.446,0.96 -32.951,3.104 -49.391,3.73 0.98,-0.299 2.522,-0.471 3.099,-1.31 -10.874,-12.601 -21.553001,-25.689 -30.862001,-39.506 -3.932,-5.835 -7.403,-12.006 -11.158,-17.96 -3.378,-5.357 -8.0696,-11.218 -9.732,-17.365 8.562,-0.252 17.079,0.235 25.617,-0.685 -2.119,-0.166 -4.238,-0.209 -6.363,-0.263 l -0.656,-0.859 c -0.135,-1.418 -0.281,-2.319 0.461,-3.617 1.901,-1.147 5.198,-0.258 7.441,-0.627 -11.739,-0.68 -23.5449,-0.39 -35.2995,-0.374 1.2501,-0.184 2.3111,-0.254 3.3532,-1.041 -0.1873,-4.214 -9.2498,-20.399 -11.4468,-25.597 -7.5933,-17.969 -17.7133,-42.535 -20.0696,-61.792 z"
     id="path13" />
  <path
     fill="#cdf8f0"
     d="m 648.357,700.75811 c 4.554,2.82 9.137,6.119 13.912,8.508 19.525,9.77 44.176,12.204 65.351,7.305 7.35,-1.701 14.35,-4.061 21.089,-7.451 2.605,-1.31 5.355,-3.352 8.004,-4.365 5.758,2.552 46.055,3.609 55.471,4.267 8.224,0.574 16.918,1.993 25.124,1.873 4.499,0.337 19.645,1.103 22.612,3.901 0.126,0.119 0.219,0.268 0.328,0.402 -0.596,1.229 -1.233,1.358 -2.478,1.756 -5.906,1.891 -20.46,2.533 -26.886,2.54 -2.598,0.409 -3.838,0.951 -5.851,2.618 -7.108,5.889 -13.159,13.259 -19.936,19.571 -13.436,12.513 -28.277,24.22 -42.92,35.292 q -8.055,6.003 -16.362,11.652 -8.307,5.65 -16.85,10.936 -8.543,5.286 -17.306,10.198 -8.763,4.912 -17.73,9.442 -8.967,4.529 -18.121,8.667 -9.154,4.138 -18.478,7.877 -9.324,3.739 -18.801,7.073 -9.477,3.333 -19.089,6.254 -6.49,1.995 -13.033,3.807 -6.544,1.811 -13.136,3.438 -6.592,1.626 -13.228,3.065 -6.635,1.439 -13.308,2.691 -6.674,1.251 -13.38,2.314 -6.706,1.063 -13.439,1.935 -6.734,0.873 -13.489,1.556 -6.755,0.682 -13.527,1.174 -6.772,0.491 -13.555,0.791 -6.783,0.301 -13.572,0.409 -6.789,0.109 -13.578,0.025 -6.789,-0.083 -13.573,-0.357 -6.784,-0.275 -13.558,-0.741 -6.774,-0.466 -13.531,-1.123 -6.758,-0.657 -13.495,-1.505 -6.736,-0.848 -13.446,-1.885 -6.71,-1.038 -13.388,-2.264 -6.678,-1.227 -13.319,-2.641 -6.641,-1.415 -13.239,-3.016 -6.598,-1.601 -13.149,-3.388 -6.55,-1.787 -13.047,-3.758 -6.497,-1.972 -12.936,-4.125 -6.439,-2.154 -12.815,-4.489 -6.376,-2.334 -12.683,-4.848 -6.307,-2.514 -12.541,-5.205 -6.234,-2.691 -12.389,-5.556 -6.155,-2.866 -12.227,-5.904 -6.072,-3.038 -12.056,-6.247 -5.984,-3.208 -11.875,-6.584 -5.891,-3.376 -11.684,-6.917 -5.793,-3.541 -11.484,-7.245 -5.691,-3.703 -11.275,-7.565 c -13.037,-8.935 -25.114,-18.75 -37.122,-29.002 -4.672,-3.989 -9.62,-7.841 -14.026,-12.113 -3.449,-3.345 -22.106,-23.153 -23.938,-24.02 -0.211,-0.1 -0.427,-0.188 -0.641,-0.282 -4.567,-0.07 -9.178,-0.507 -13.726,-0.909 -3.428,-0.303 -15.008,-0.53 -17.156001,-3.097 l 0.428,-0.653 c 5.518001,-2.47 13.837001,-3.023 19.889001,-3.357 16.44,-0.626 32.945,-2.77 49.391,-3.73 15.184,-0.886 30.854,-0.449 45.911,-2.553 l -0.092,-0.272 0.518,-0.054 0.294,-0.465 c 9.478,5.682 18.69,9.711 29.508,12.144 q 2.005,0.45 4.027,0.817 2.022,0.368 4.058,0.652 2.035,0.285 4.081,0.486 2.045,0.201 4.097,0.318 2.052,0.117 4.106,0.149 2.055,0.033 4.11,-0.018 2.054,-0.051 4.105,-0.186 2.051,-0.135 4.094,-0.355 2.044,-0.219 4.077,-0.521 2.032,-0.303 4.051,-0.688 2.019,-0.386 4.02,-0.853 2.001,-0.468 3.982,-1.018 1.98,-0.549 3.936,-1.179 1.957,-0.63 3.885,-1.339 1.929,-0.71 3.827,-1.497 1.899,-0.788 3.763,-1.653 c 4.953,-2.318 9.793,-5.466 14.409,-8.393 6.462,1.285 14.383,0.302 21.025,0.263 q 25.973,-0.084 51.942,-0.513 81.964,-0.853 163.928,-0.026 c 9.507,0.103 85.255,1.764 89.111,-0.241 z"
     id="path14" />
  <path
     fill="#fefefe"
     d="m 620.49,738.91111 c 0.925,-0.028 1.864,-0.055 2.787,0.029 2.985,0.269 6.09,1.414 8.047,3.77 2.231,2.685 2.531,6.477 2.088,9.804 -1.504,11.285 -10.531,17.719 -18.875,24.141 -3.379,-1.501 -6.45,-3.351 -9.591,-5.294 -3.481,-2.211 -7.305,-5.126 -9.805,-8.435 -3.477,-4.604 -3.538,-8.911 -2.72,-14.336 1.941,-2.153 3.922,-3.639 6.435,-5.08 5.701,0.393 8.721,2.002 13.218,5.314 0.578,-2.09 1.341,-4.048 2.169,-6.051 2.01,-1.566 3.99,-2.721 6.247,-3.862 z"
     id="path15" />
  <path
     fill="#fefefe"
     d="m 381.425,753.11611 c 3.962,-0.236 8.006,0.313 11.512,2.264 6.664,3.71 9.796,11.138 11.917,18.062 0.859,-1.118 1.786,-2.141 2.8,-3.119 4.604,-4.439 9.76,-6.723 16.241,-6.508 4.418,0.146 8.599,1.602 11.608,4.942 3.299,3.663 4.419,8.497 3.949,13.323 -1.089,11.163 -10.297,19.183 -18.339,25.953 -7.238,5.902 -16.302,10.741 -25.104,13.777 -11.948,-9.528 -23.413,-25.63 -27.431,-40.486 -1.754,-6.487 -2.256,-14.703 1.386,-20.615 2.619,-4.253 6.729,-6.479 11.461,-7.593 z"
     id="path16" />
  <path
     fill="#83cbd5"
     d="m 648.357,700.75811 c 4.554,2.82 9.137,6.119 13.912,8.508 19.525,9.77 44.176,12.204 65.351,7.305 7.35,-1.701 14.35,-4.061 21.089,-7.451 2.605,-1.31 5.355,-3.352 8.004,-4.365 5.758,2.552 46.055,3.609 55.471,4.267 8.224,0.574 16.918,1.993 25.124,1.873 4.499,0.337 19.645,1.103 22.612,3.901 0.126,0.119 0.219,0.268 0.328,0.402 -0.596,1.229 -1.233,1.358 -2.478,1.756 -5.906,1.891 -20.46,2.533 -26.886,2.54 -8.814,-0.079 -17.723,0.991 -26.515,1.614 q -18.765,1.213 -37.552,2.02 -62.817,1.863 -125.66,2.3 l -203.166,0.053 q -81.152,0.335 -162.294,-0.993 c -15.846,-0.2 -31.685,0.076 -47.531,-0.323 q -34.085,-1.054 -68.142,-2.777 c -10.441,-0.564 -20.802,-1.533 -31.266,-1.889 -4.567,-0.07 -9.178,-0.507 -13.726,-0.909 -3.428,-0.303 -15.008,-0.53 -17.156001,-3.097 l 0.428,-0.653 c 5.518001,-2.47 13.837001,-3.023 19.889001,-3.357 16.44,-0.626 32.945,-2.77 49.391,-3.73 15.184,-0.886 30.854,-0.449 45.911,-2.553 l -0.092,-0.272 0.518,-0.054 0.294,-0.465 c 9.478,5.682 18.69,9.711 29.508,12.144 q 2.005,0.45 4.027,0.817 2.022,0.368 4.058,0.652 2.035,0.285 4.081,0.486 2.045,0.201 4.097,0.318 2.052,0.117 4.106,0.149 2.055,0.033 4.11,-0.018 2.054,-0.051 4.105,-0.186 2.051,-0.135 4.094,-0.355 2.044,-0.219 4.077,-0.521 2.032,-0.303 4.051,-0.688 2.019,-0.386 4.02,-0.853 2.001,-0.468 3.982,-1.018 1.98,-0.549 3.936,-1.179 1.957,-0.63 3.885,-1.339 1.929,-0.71 3.827,-1.497 1.899,-0.788 3.763,-1.653 c 4.953,-2.318 9.793,-5.466 14.409,-8.393 6.462,1.285 14.383,0.302 21.025,0.263 q 25.973,-0.084 51.942,-0.513 81.964,-0.853 163.928,-0.026 c 9.507,0.103 85.255,1.764 89.111,-0.241 z"
     id="path17" />
  <path
     fill="#cdf8f0"
     d="m 52.314299,282.49211 c 2.9714,-7.199 5.3266,-14.533 8.6437,-21.608 32.827,-70.015 89.140001,-137.028 152.981001,-180.839999 24.902,-17.09 52.786,-31.37 80.66,-42.947 q 5.251,-2.229 10.554,-4.33 5.304,-2.1 10.657,-4.07 5.353,-1.97 10.753,-3.809 5.4,-1.838 10.843,-3.544 5.443,-1.706 10.927,-3.278 5.483,-1.573 11.003,-3.01 5.52,-1.438 11.074,-2.74 5.554,-1.303 11.138,-2.4689997 5.583,-1.166 11.194,-2.195 5.611,-1.029 11.245,-1.92 5.634,-0.892 11.288,-1.645 5.655,-0.754 11.326,-1.369 5.671,-0.615 11.355,-1.091 5.685,-0.476 11.379,-0.81289997 5.694,-0.3369 11.395,-0.5345 5.701,-0.1975 11.405,-0.2556 5.704,-0.058 11.408,0.0235 5.704,0.0814 11.404,0.3024 5.7,0.2209 11.392,0.5812 5.693,0.36029997 11.376,0.85989997 5.682,0.499 11.351,1.138 5.668,0.638 11.319,1.415 5.651,0.776 11.282,1.691 5.63,0.915 11.237,1.967 5.606,1.052 11.185,2.2409997 5.579,1.189 11.127,2.514 5.549,1.325 11.063,2.785 5.514,1.46 10.991,3.055 5.477,1.595 10.913,3.323 5.436,1.728 10.828,3.589 5.393,1.861 10.738,3.853 5.345,1.992 10.64,4.114 c 94.523,38.971 170.692,101.241999 222.209,190.106999 9.3,16.042 18.252,32.754 25.374,49.897 q 1.604,3.811 3.134,7.653 1.53,3.841 2.986,7.711 1.457,3.871 2.838,7.768 1.382,3.897 2.689,7.82 1.307,3.923 2.539,7.871 1.231,3.947 2.387,7.918 1.155,3.97 2.235,7.962 1.079,3.991 2.081,8.003 1.003,4.012 1.928,8.042 0.926,4.03 1.774,8.077 0.848,4.047 1.618,8.11 0.771,4.063 1.463,8.139 0.693,4.077 1.307,8.166 0.614,4.089 1.149,8.189 0.536,4.101 0.993,8.21 0.457,4.11 0.835,8.228 0.378,4.118 0.677,8.242 0.299,4.124 0.519,8.253 0.22,4.13 0.361,8.262 0.14,4.133 0.202,8.267 0.061,4.135 0.044,8.27 -0.018,4.135 -0.115,8.269 -0.097,4.134 -0.273,8.265 -0.176,4.131 -0.432,8.259 -0.255,4.127 -0.589,8.248 -0.335,4.122 -0.748,8.236 -0.413,4.114 -0.906,8.22 -0.492,4.106 -1.063,8.201 -0.57,4.096 -1.219,8.18 -0.649,4.083 -1.377,8.154 -0.727,4.071 -1.532,8.126 -0.805,4.056 -1.688,8.096 c -3.85,18.389 -7.707,37.792 -14.957,55.161 -0.73,1.749 -1.444,3.394 -2.582,4.923 0.079,-9.062 2.275,-28.423 -3.383,-35.541 -3.479,-4.376 -8.14,-5.274 -13.366,-5.833 0.593,-11.754 0.115,-23.733 0.044,-35.511 0.278,-17.61 2.107,-44.463 -6.958,-59.646 -3.607,-6.04 -8.689,-11.103 -14.503,-15.029 -16.038,-10.832 -48.495,-20.262 -67.778,-25.245 -3.308,-5.069 -5.656,-10.925 -8.293,-16.371 l -14.171,-29.347 -43.291,-89.569 c -6.294,-12.866 -13.376,-30.562 -22.522,-41.199 -4.592,-5.341 -9.83,-9.393 -15.973,-12.829 -27.967,-15.646 -81.102,-23.896 -113.1,-26.247 -11.969,-0.879 -23.955,-0.661 -35.948,-0.647 l -44.401,-0.007 -144.516,0.003 -107.194,0.059 c -20.651,-0.026 -44.155,-1.44 -64.456,1.259 -15.259,2.029 -30.038,6.608 -41.819,16.911 -19.923,17.422 -18.821,41.742 -20.399,65.898 l -0.384,5.906 c -6.676,-0.56 -13.427,-0.409 -20.123,-0.593 2.044,-0.279 4.215,-0.488 6.11,-1.349 1.363,-0.62 2.489,-1.429 2.989,-2.881 l -0.65,-0.909 c -2.806,-1.048 -6.067,-0.652 -9.037,-1.137 l -0.543,-0.092 z"
     id="path18" />
  <path
     fill="#b1e6e6"
     d="m 100.585,283.03311 c 7.2,-0.182 14.552,-0.45 21.638,1.055 l -0.384,5.906 c -6.676,-0.56 -13.427,-0.409 -20.123,-0.593 2.044,-0.279 4.215,-0.488 6.11,-1.349 1.363,-0.62 2.489,-1.429 2.989,-2.881 l -0.65,-0.909 c -2.806,-1.048 -6.067,-0.652 -9.037,-1.137 z"
     id="path19" />
  <path
     fill="#fefefe"
     d="m 215.064,121.48711 c 1.911,0.156 3.615,0.431 5.354,1.287 2.926,1.441 4.848,3.707 5.893,6.79 2.349,6.93 -0.041,14.645 -3.323,20.87 -2.261,4.287 -7.808,13.913 -12.695,15.212 -5.27,1.399 -12.573,-3.198 -16.852,-5.921 -5.689,-3.976 -10.878,-9.123 -12.809,-15.987 -0.915,-3.254 -0.965,-6.815 0.803,-9.799 2.302,-3.885 6.287,-5.125 10.354,-6.269 4.487,1.172 7.944,3.097 11.814,5.576 0.452,-1.436 0.958,-2.947 1.674,-4.277 2.156,-4.008 5.527,-6.201 9.787,-7.482 z"
     id="path20" />
  <path
     fill="#fefefe"
     d="m 646.277,109.56311 c 4.324,-0.261 8.269,-0.545 12.039,2 4.669,3.153 6.378,9.51 7.222,14.767 4.809,-2.016 9.835,-4.168 15.144,-2.854 3.238,0.802 6.042,2.839 7.643,5.783 1.682,3.09 1.866,6.822 0.885,10.164 -1.759,5.993 -6.476,9.585 -11.633,12.549 -8.285,4.483 -18.222,6.182 -27.54,5.943 -1.689,-1.766 -2.939,-3.836 -4.201,-5.919 -5.424,-8.951 -10.442,-22.532 -7.499,-33.084 1.304,-4.679 3.79,-7.044 7.94,-9.349 z"
     id="path21" />
  <path
     fill="#fefefe"
     d="m 525.98,82.569111 c 4.081,-0.124 8.423,0.755 11.41,3.724 3.237,3.218 4.618,8.282 4.517,12.742 -0.332,14.702999 -13.49,26.418999 -23.21,35.906999 -6.75,-1.652 -12.381,-5.22 -18.268,-8.754 -2.111,-1.655 -4.243,-3.303 -6.178,-5.165 -5.045,-4.858 -10.075,-11.718 -10.039,-18.983 0.019,-3.855999 1.1,-8.041999 3.99,-10.759999 2.798,-2.631 6.817,-3.499 10.559,-3.18 6.126,0.523 10.052,3.901 13.83,8.364 0.685,-1.826 1.453,-3.583 2.429,-5.274 2.562,-4.437 6.029,-7.262 10.96,-8.621 z"
     id="path22" />
  <path
     fill="#fefefe"
     d="m 762.607,180.57011 c 4.766,-0.433 10.162,0.329 14.002,3.347 6.535,5.134 7.372,13.715 8.138,21.364 0.326,-0.206 0.652,-0.413 0.987,-0.604 5.679,-3.231 12.13,-4.707 18.513,-2.752 4.241,1.299 7.738,4.053 9.718,8.052 2.072,4.186 2.169,9.181 0.613,13.546 -3.191,8.956 -10.644,13.947 -18.774,17.895 -9.206,5.059 -21.033,7.792 -31.223,10.069 -6.733,-7.506 -11.166,-18.594 -14.124,-28.093 -3.233,-10.382 -5.527,-23.849 0.022,-33.88 2.821,-5.098 6.718,-7.407 12.128,-8.944 z"
     id="path23" />
  <path
     fill="#fefefe"
     d="m 816.624,309.61011 c 6.003,-0.637 12.228,-0.625 17.238,3.268 6.142,4.772 7.384,12.668 8.265,19.88 1.009,-0.705 2.011,-1.414 3.049,-2.077 4.923,-3.145 11.518,-4.779 17.245,-3.381 4.618,1.127 8.821,4.065 11.155,8.245 2.548,4.564 2.859,10.315 1.402,15.279 -2.34,7.967 -8.681,12.768 -15.594,16.597 -12.494,6.596 -23.363,10.086 -37.37,11.597 -2.408,-3.198 -4.6,-6.267 -6.467,-9.826 -6.968,-13.277 -14.203,-33.529 -9.176,-48.586 1.751,-5.246 5.34,-8.66 10.253,-10.996 z"
     id="path24" />
  <path
     fill="#fefefe"
     d="m 309.935,88.108111 c 5.278,-0.473 10.374,-0.099 15.22,2.263 8.717,4.248 11.612,12.734999 14.684,21.179999 1.483,-2.296 3.046,-4.46 5.133,-6.253 4.973,-4.272 12.123,-6.535999 18.672,-5.750999 5.256,0.629999 10.312,3.588999 13.489,7.818999 3.632,4.834 4.503,11.186 3.557,17.049 -1.934,11.993 -12.145,22.008 -21.561,28.765 -10.155,7.88 -20.346,13.264 -31.952,18.617 -12.86,-13.809 -24.965,-28.546 -30.827,-46.884 -2.509,-7.852 -3.667,-19.006 0.342,-26.494999 2.947,-5.506 7.444,-8.5 13.243,-10.31 z"
     id="path25" />
  <path
     fill="#83CBD5"
     d="m 122.223,284.08811 c 1.578,-24.156 0.476,-48.476 20.399,-65.898 11.781,-10.303 26.56,-14.882 41.819,-16.911 20.301,-2.699 43.805,-1.285 64.456,-1.259 l 107.194,-0.059 144.516,-0.003 44.401,0.007 c 11.993,-0.014 23.979,-0.232 35.948,0.647 31.998,2.351 85.133,10.601 113.1,26.247 6.143,3.436 11.381,7.488 15.973,12.829 9.146,10.637 16.228,28.333 22.522,41.199 l 43.291,89.569 14.171,29.347 c 2.637,5.446 4.985,11.302 8.293,16.371 19.283,4.983 51.74,14.413 67.778,25.245 5.814,3.926 10.896,8.989 14.503,15.029 9.065,15.183 7.236,42.036 6.958,59.646 0.071,11.778 0.549,23.757 -0.044,35.511 5.226,0.559 9.887,1.457 13.366,5.833 5.658,7.118 3.462,26.479 3.383,35.541 -1.452,8.127 -4.153,13.379 -9.696,19.463 -1.592,12.65 -30.417,59.045 -38.492,70.809 -4.003,5.831 -17.882,22.068 -18.754,27.644 -8.206,0.12 -16.9,-1.299 -25.124,-1.873 -9.416,-0.658 -49.713,-1.715 -55.471,-4.267 -2.649,1.013 -5.399,3.055 -8.004,4.365 -6.739,3.39 -13.739,5.75 -21.089,7.451 -21.175,4.899 -45.826,2.465 -65.351,-7.305 -4.775,-2.389 -9.358,-5.688 -13.912,-8.508 -3.856,2.005 -79.604,0.344 -89.111,0.241 q -81.964,-0.827 -163.928,0.026 -25.969,0.429 -51.942,0.513 c -6.642,0.039 -14.563,1.022 -21.025,-0.263 -4.616,2.927 -9.456,6.075 -14.409,8.393 q -1.864,0.865 -3.763,1.653 -1.898,0.787 -3.827,1.497 -1.928,0.709 -3.885,1.339 -1.956,0.63 -3.936,1.179 -1.981,0.55 -3.982,1.018 -2.001,0.467 -4.02,0.853 -2.019,0.385 -4.051,0.688 -2.033,0.302 -4.077,0.521 -2.043,0.22 -4.094,0.355 -2.051,0.135 -4.105,0.186 -2.055,0.051 -4.11,0.018 -2.054,-0.032 -4.106,-0.149 -2.052,-0.117 -4.097,-0.318 -2.046,-0.201 -4.081,-0.486 -2.036,-0.284 -4.058,-0.652 -2.022,-0.367 -4.027,-0.817 c -10.818,-2.433 -20.03,-6.462 -29.508,-12.144 q -4.114,-2.601 -7.946,-5.603 -3.831,-3.002 -7.341,-6.374 -0.889,-0.852 -1.757,-1.726 -0.868,-0.873 -1.714,-1.768 -0.847,-0.895 -1.671,-1.81 -0.824,-0.916 -1.625,-1.851 -0.801,-0.936 -1.579,-1.891 -0.778,-0.954 -1.532,-1.928 -0.754,-0.974 -1.484,-1.966 -0.73,-0.992 -1.435,-2.001 -0.705,-1.01 -1.385,-2.037 -0.681,-1.026 -1.335,-2.07 -0.655,-1.043 -1.284,-2.102 -0.629,-1.059 -1.231,-2.133 -0.603,-1.074 -1.179,-2.162 -0.576,-1.089 -1.125,-2.191 -0.548,-1.103 -1.07,-2.219 -0.522,-1.115 -1.016,-2.243 -0.494,-1.129 -0.96,-2.269 -0.466,-1.14 -0.904,-2.291 -0.438,-1.151 -0.847,-2.312 -0.409,-1.162 -0.79,-2.333 -0.381,-1.171 -0.732,-2.352 -0.352,-1.18 -0.675,-2.369 -0.322,-1.188 -0.615,-2.384 -0.294,-1.197 -0.557,-2.4 -0.264,-1.203 -0.498,-2.412 -0.234,-1.209 -0.438,-2.424 -0.204,-1.214 -0.378,-2.433 -0.174,-1.22 -0.318,-2.443 -0.144,-1.223 -0.258,-2.449 -0.114,-1.226 -0.198,-2.455 -0.083,-1.229 -0.137,-2.459 -0.053,-1.231 -0.076,-2.462 c -15.869,-0.653 -37.496,2.682 -51.844,-5.138 -7.008,-3.819 -12.537,-9.959 -14.78,-17.71 -2.293001,-7.927 -2.647001,-20.421 1.613,-27.73 3.082,-5.289 8.157,-6.866 13.71,-8.284 q -0.195,-11.253 -0.577,-22.501 c -7.776,0.377 -15.723,0.019 -23.516001,0.033 l -60.1537,-0.27 c -6.0174,-0.066 -19.2091,0.688 -24.3836996,-0.744 -0.9507,-0.263 -2.1433,-1.328 -2.5747,-2.234 -0.6305,-1.325 -0.5139,-1.554 -0.0125,-2.828 4.1339,-3.328 12.7855996,-2.334 17.9070996,-2.314 l 5.6205,-0.671 c -1.5767,-10.961 -3.6595,-21.861 -5.1242,-32.838 -1.0598,-7.944 -1.4478,-16.022 -2.2722,-24.002 -5.7255,-0.027 -12.2199996,0.486 -17.8219996,-0.669 -1.8205,-0.375 -2.9071,-0.833 -3.91560004086914,-2.414 C 0.03629936,470.96011 0.14709936,470.50511 0.66449936,469.82511 c 1.54010004,-2.025 4.40390004,-1.908 6.71350004,-2.119 7.4568996,1.326 20.3083996,-0.041 28.4020996,-0.05 l 79.949901,-0.191 c 0.192,-8.682 -0.845,-18.029 0.481,-26.593 q 0.169,-14.851 0.624,-29.697 c 0.729,-4.491 0.479,-9.198 0.461,-13.738 0.052,-10.742 0.738,-21.571 1.063,-32.314 0.21,-2.025 -0.238,-4.314 0.627,-6.191 1.546,-0.851 2.371,-0.611 4.108,-0.534 1.148,-0.627 2.426,-0.62 3.704,-0.733 -1.246,-0.389 -1.683,-0.688 -2.506,-1.701 -0.221,-1.654 -0.056,-2.023 0.52,-3.528 1.263,-0.807 2.627,0.075 4.132,-0.119 l -0.456,-0.774 c -1.525,-0.009 -2.825,-0.014 -4.298,-0.49 -0.615,0.167 -0.999,0.285 -1.653,0.391 -1.416,0.231 -1.934,0.067 -3.078,-0.742 l -0.319,-2.102 c 0.4,-19.567 2.05,-39.058 2.699,-58.606 z"
     id="path26"
     style="fill:#3e9bb6;fill-opacity:1" />
  <path
     fill="#357d9b"
     d="m 806.098,475.50711 c 1.036,0.087 2.216,0.229 3.16,0.703 1.385,0.695 2.535,2.027 2.999,3.509 0.824,2.631 -0.162,5.612 -1.543,7.869 -1.956,3.199 -5.166,6.053 -8.903,6.874 -2.698,0.593 -4.281,-0.304 -6.526,-1.723 -2.362,-2.005 -4.691,-4.233 -5.829,-7.182 -0.811,-2.103 -1.534,-5.586 -0.232,-7.661 0.669,-1.066 1.405,-1.738 2.695,-1.925 2.64,-0.382 5.337,1.551 7.207,3.143 2.281,-1.46 4.354,-2.802 6.972,-3.607 z"
     id="path27" />
  <path
     fill="#61abbf"
     d="m 277.758,352.54811 c -0.443,13.168 1.415,25.535 10.764,35.537 4.715,5.045 10.567,8.092 17.546,8.269 4.952,0.125 9.777,-1.373 13.387,-4.866 0.879,-0.851 1.546,-1.868 2.198,-2.896 l 0.462,1.374 c -0.27,1.428 -0.573,2.591 -1.372,3.823 -3.431,5.287 -8.708,8.473 -14.848,9.7 -5.92,1.183 -11.753,-0.13 -16.74,-3.486 -7.339,-4.937 -11.818,-12.85 -13.415,-21.426 -1.369,-7.344 -2.39,-19.559 2.018,-26.029 z"
     id="path28" />
  <path
     fill="#fcd1d0"
     d="m 882.191,541.39811 c -4.784,0.305 -9.767,-0.28 -13.752,-3.141 -5.31,-3.813 -7.801,-10.177 -8.716,-16.437 -1.519,-10.385 -1.882,-26.275 4.924,-34.971 2.906,-3.712 5.498,-5.188 10.118,-5.689 -2.31,3.056 -4.763,6.119 -6.405,9.603 -3.393,7.198 -3.493,18.049 -2.385,25.764 0.788,5.49 2.905,11.042 7.607,14.321 2.731,1.905 5.456,2.144 8.696,2.264 z"
     id="path29" />
  <path
     fill="#61abbf"
     d="m 525.626,350.59511 c 3.025,2.724 3.205,12.126 3.413,15.944 0.552,10.115 -1.827,20.977 -8.728,28.692 q -0.42,0.471 -0.863,0.921 -0.442,0.449 -0.906,0.878 -0.463,0.428 -0.947,0.833 -0.483,0.406 -0.986,0.787 -0.502,0.382 -1.022,0.739 -0.52,0.357 -1.057,0.689 -0.537,0.332 -1.089,0.638 -0.552,0.305 -1.118,0.584 -0.566,0.279 -1.145,0.53 -0.578,0.252 -1.169,0.475 -0.59,0.223 -1.19,0.418 -0.6,0.195 -1.209,0.36 -0.609,0.166 -1.225,0.302 -0.616,0.136 -1.238,0.243 -0.622,0.107 -1.248,0.183 -0.627,0.077 -1.256,0.123 c -5.79,0.369 -11.876,-1.669 -16.192,-5.567 -3.198,-2.888 -6.42,-8.362 -6.504,-12.83 -0.008,-0.438 0.065,-0.763 0.132,-1.207 1.283,2.817 2.693,5.379 5.001,7.496 3.649,3.348 8.097,5.165 13.081,4.885 6.819,-0.383 13.066,-4.155 17.523,-9.182 9.317,-10.51 10.771,-23.469 9.942,-36.934 z"
     id="path30" />
  <path
     fill="#61abbf"
     d="m 328.31,299.94411 c 0.449,15.237 3.732,30.276 15.211,41.195 5.959,5.669 13.647,9.406 22.019,9.086 5.831,-0.224 11.381,-1.776 15.463,-6.172 1.152,-1.24 2.115,-2.698 3.048,-4.105 l 0.432,1.094 c -0.124,1.102 -0.418,1.976 -0.896,2.967 -2.881,5.964 -9.924,10.778 -16.146,12.716 -6.201,1.933 -12.283,1.268 -17.991,-1.762 -9.938,-5.274 -17.907,-16.196 -21.057,-26.855 -2.116,-7.156 -3.723,-21.399 -0.083,-28.164 z"
     id="path31" />
  <path
     fill="#61abbf"
     d="m 474.833,299.85311 c 3.193,5.155 2.752,19.138 1.385,25.059 -2.597,11.249 -9.75,22.711 -19.727,28.799 -6.104,3.724 -13.288,5.153 -20.266,3.266 -6.568,-1.776 -12.802,-6.151 -16.199,-12.089 -1.457,-2.546 -2.795,-6.059 -2.519,-9.016 1.244,2.566 2.526,4.872 4.46,7.008 4.086,4.514 9.474,7.12 15.581,7.32 8.465,0.278 16.444,-3.687 22.398,-9.504 11.368,-11.108 14.761,-25.453 14.887,-40.843 z"
     id="path32" />
  <path
     fill="#1f677e"
     d="m 630.649,434.64611 c 7.051,-0.364 29.7,-1.449 35.042,1.722 1.423,0.844 2.557,2.047 2.832,3.739 0.329,2.022 -0.948,4.904 -2.146,6.5 -1.073,1.428 -2.429,1.707 -4.1,1.935 -6.833,0.511 -29.003,1.942 -34.424,-0.805 -1.48,-0.75 -2.703,-1.914 -3.21,-3.524 -0.62,-1.969 -0.495,-4.315 0.594,-6.095 1.292,-2.111 3.091,-2.924 5.412,-3.472 z"
     id="path33" />
  <path
     fill="#61abbf"
     d="m 711.941,251.33211 c 1.493,1.949 2.579,4.056 3.716,6.219 -18.374,-0.237 -36.781,0.01 -55.157,0.022 -18.448,0.012 -36.927,-0.212 -55.368,0.248 -1.725,-2.061 -3.767,-3.936 -5.653,-5.854 33.518,-1.086 67.127,-0.083 100.672,-0.504 3.928,0.031 7.863,-0.075 11.79,-0.131 z"
     id="path34" />
  <path
     fill="#61abbf"
     d="m 758.202,402.16111 c 0.484,-8.085 -0.433,-16.375 0.554,-24.417 0.021,0.196 0.045,0.392 0.063,0.588 0.6,6.256 -0.774,12.762 0.468,18.922 1.244,6.177 4.369,11.734 5.344,18.071 -4.624,12.343 -4.164,17.69 -17.642,23.755 -6.394,2.877 -14.39,4.346 -21.114,1.809 -3.799,-1.433 -6.706,-4.233 -8.345,-7.941 -3.141,-7.108 -0.31,-15.077 2.035,-22.005 l 4.73,-0.134 c -0.076,3.924 0.724,8.043 3.425,11.026 3.226,3.564 8.169,4.559 12.781,4.653 4.876,0.099 11.037,-0.46 14.615,-4.14 4.675,-4.808 3.325,-14.028 3.086,-20.187 z"
     id="path35" />
  <path
     fill="#61abbf"
     d="m 116.211,440.87211 c 0.083,5.253 -0.96,23.089 0.912,26.59 0.932,0.594 1.307,0.846 2.463,0.407 0.344,-0.131 0.721,-0.474 1.006,-0.71 0.264,-6.311 -0.647,-13.572 0.616,-19.722 q 0.056,10.019 0.004,20.039 l 11.24,-0.006 q 11.043,0.02 22.083,0.255 c 4.279,0.057 8.639,-0.206 12.889,0.333 -5.413,1.383 -13.424,0.425 -19.086,0.425 q -16.03,-0.06 -32.058,0.252 c -0.057,1.856 -0.408,4.114 0.417,5.816 1.086,0.658 1.159,0.443 2.398,0.159 0.175,-0.04 0.344,-0.099 0.517,-0.147 2.195,-0.607 38.187,-0.424 40.279,0.235 -11.2,0.603 -22.606,-0.599 -33.725,0.267 -1.766,-0.021 -3.62,-0.165 -5.373,0.041 -1.591,0.22 -3.456,0.671 -5.035,0.401 -11.331,-0.767 -22.966001,-0.406 -34.335001,-0.447 l -59.6854,-0.204 c -5.7255,-0.027 -12.2199996,0.486 -17.8219996,-0.669 -1.8205,-0.375 -2.9071,-0.833 -3.9156000408691,-2.414 C 0.03629936,470.96011 0.14709936,470.50511 0.66449936,469.82511 c 1.54010004,-2.025 4.40390004,-1.908 6.71350004,-2.119 7.4568996,1.326 20.3083996,-0.041 28.4020996,-0.05 l 79.949901,-0.191 c 0.192,-8.682 -0.845,-18.029 0.481,-26.593 z"
     id="path36" />
  <path
     fill="#fefefe"
     d="m 719.565,410.94311 -59.166,-0.038 c -9.846,0.033 -20.86,1.11 -30.557,-0.221 -2.551,-0.35 -4.288,-1.374 -5.79,-3.477 -1.356,-1.899 -1.682,-3.775 -1.829,-6.072 -0.526,-8.25 -0.039,-16.77 -0.009,-25.054 l 0.068,-47.409 -0.02,-30.851 c -0.008,-4.662 -0.637,-10.18 0.223,-14.704 0.527,-2.77 2.271,-5.513 4.655,-7.043 1.297,-0.831 2.595,-1.2 4.113,-0.866 l 0.343,0.801 c -3.014,2.167 -4.361,4.399 -4.888,8.103 -0.638,4.485 -0.184,9.413 -0.176,13.945 l -0.026,25.73 -0.034,47.424 c -0.004,8.148 -0.386,16.481 0.052,24.613 0.167,3.111 0.621,6.009 2.073,8.794 4.293,2.507 18.947,1.044 24.382,0.987 l 66.362,-0.058 c 1.598,-0.006 3.963,-0.446 4.541,1.397 0.35,1.113 0.337,2.685 0.413,3.865 z"
     id="path37" />
  <path
     fill="#FEFEFE"
     d="m 228.064,292.02011 c 3.42,-0.201 6.251,0.401 8.997,2.597 3.079,2.463 4.214,6.557 4.545,10.33 0.889,10.125 -4.588,21.612 -10.982,29.195 -6.748,-0.232 -12.881,-1.944 -19.151,-4.339 q -1.276,-0.565 -2.51,-1.218 c -5.048,-2.696 -10.079,-6.678 -11.638,-12.445 -0.775,-2.869 -0.464,-6.08 1.135,-8.62 1.465,-2.33 3.735,-3.786 6.409,-4.356 4.978,-1.061 9.284,0.967 13.407,3.465 0.084,-3.017 0.102,-5.952 1.526,-8.715 1.768,-3.428 4.771,-4.748 8.262,-5.894 z"
     id="path38"
     style="fill:#ff8080" />
  <path
     fill="#fefefe"
     d="m 611.995,577.85111 -0.342,-0.811 c 1.406,-12.645 13.62,-28.493 22.804,-36.721 21.747,-19.485 51.987,-27.83 80.758,-26.155 25.595,1.49 52.48,11.603 69.711,31.275 4.076,4.653 11.599,14.5 11.162,21.016 -17.577,-24.011 -42.387,-37.958 -71.725,-42.505 -29.383,-4.554 -60.709,3.843 -84.527,21.429 -11.868,8.762 -20.716,19.631 -27.841,32.472 z"
     id="path39" />
  <path
     fill="#fefefe"
     d="m 705.242,490.68811 q 2.29,-0.054 4.579,-0.016 2.29,0.038 4.577,0.167 2.287,0.129 4.566,0.35 2.28,0.22 4.549,0.531 2.269,0.311 4.523,0.713 2.255,0.401 4.492,0.892 2.237,0.491 4.453,1.071 2.215,0.58 4.406,1.248 2.19,0.668 4.353,1.423 2.162,0.754 4.292,1.595 2.131,0.84 4.226,1.765 2.095,0.925 4.152,1.933 2.056,1.008 4.071,2.097 2.015,1.089 3.984,2.257 1.97,1.169 3.891,2.415 1.922,1.246 3.792,2.568 c 7.924,5.629 27.524,23.491 29.096,32.86 -0.059,-0.088 -0.126,-0.173 -0.178,-0.266 -1.959,-3.505 -5.625,-6.594 -8.559,-9.312 q -1.163,-1.074 -2.353,-2.12 -1.189,-1.046 -2.403,-2.062 -1.215,-1.016 -2.454,-2.002 -1.239,-0.986 -2.502,-1.941 -1.263,-0.956 -2.549,-1.88 -1.285,-0.924 -2.594,-1.817 -1.308,-0.892 -2.637,-1.752 -1.33,-0.861 -2.68,-1.688 -1.35,-0.827 -2.72,-1.621 -1.371,-0.794 -2.76,-1.554 -1.389,-0.761 -2.796,-1.487 -1.407,-0.726 -2.832,-1.417 -1.425,-0.691 -2.866,-1.347 -1.441,-0.656 -2.898,-1.277 -1.457,-0.621 -2.928,-1.206 -1.472,-0.584 -2.957,-1.133 -1.486,-0.549 -2.984,-1.061 -1.499,-0.512 -3.009,-0.987 -1.511,-0.475 -3.033,-0.913 -1.522,-0.438 -3.053,-0.839 -1.533,-0.4 -3.074,-0.763 -1.541,-0.363 -3.091,-0.689 -1.55,-0.325 -3.107,-0.612 -1.558,-0.287 -3.121,-0.536 -1.564,-0.249 -3.134,-0.459 -1.569,-0.211 -3.143,-0.382 -1.575,-0.172 -3.153,-0.306 -1.577,-0.133 -3.158,-0.228 -1.581,-0.095 -3.163,-0.151 -1.583,-0.055 -3.166,-0.073 -1.584,-0.017 -3.167,0.005 -1.584,0.022 -3.166,0.082 -10.1,0.422 -20.016,2.384 c -25.181,4.902 -51.224,17.928 -68.233,37.478 -3.008,3.459 -5.533,7.314 -8.092,11.108 3.617,-9.803 10.536,-19.487 17.673,-27.038 21.932,-23.203 50.723,-33.01 82.054,-34.007 z"
     id="path40" />
  <path
     fill="#fefefe"
     d="m 118.359,365.12311 c 0.21,-2.025 -0.238,-4.314 0.627,-6.191 1.546,-0.851 2.371,-0.611 4.108,-0.534 l 0.219,0.409 c 3.576,-0.98 8.191,-0.343 11.925,-0.321 -1.47,36.208 -3.339,72.745 -2.786,108.984 l -11.24,0.006 q 0.052,-10.02 -0.004,-20.039 c -1.263,6.15 -0.352,13.411 -0.616,19.722 -0.285,0.236 -0.662,0.579 -1.006,0.71 -1.156,0.439 -1.531,0.187 -2.463,-0.407 -1.872,-3.501 -0.829,-21.337 -0.912,-26.59 q 0.169,-14.851 0.624,-29.697 c 0.729,-4.491 0.479,-9.198 0.461,-13.738 0.052,-10.742 0.738,-21.571 1.063,-32.314 z"
     id="path41" />
  <path
     fill="#1f677e"
     d="m 118.359,365.12311 c 0.21,-2.025 -0.238,-4.314 0.627,-6.191 1.546,-0.851 2.371,-0.611 4.108,-0.534 l 0.219,0.409 c -0.471,29.544 -1.778,59.083 -2.105,88.63 -1.263,6.15 -0.352,13.411 -0.616,19.722 -0.285,0.236 -0.662,0.579 -1.006,0.71 -1.156,0.439 -1.531,0.187 -2.463,-0.407 -1.872,-3.501 -0.829,-21.337 -0.912,-26.59 q 0.169,-14.851 0.624,-29.697 c 0.729,-4.491 0.479,-9.198 0.461,-13.738 0.052,-10.742 0.738,-21.571 1.063,-32.314 z"
     id="path42" />
  <path
     fill="#fefefe"
     d="m 277.758,352.54811 c 1.447,-6.581 3.678,-12.723 9.644,-16.581 3.745,-2.422 8.14,-2.925 12.443,-1.938 8.301,1.904 14.7,8.405 18.948,15.483 5.239,8.728 8.055,21.364 5.517,31.387 -0.666,2.629 -1.812,5.12 -2.657,7.693 -0.652,1.028 -1.319,2.045 -2.198,2.896 -3.61,3.493 -8.435,4.991 -13.387,4.866 -6.979,-0.177 -12.831,-3.224 -17.546,-8.269 -9.349,-10.002 -11.207,-22.369 -10.764,-35.537 z"
     id="path43" />
  <path
     fill="#fefefe"
     d="m 480.079,384.33011 c -0.151,-2.092 -1.116,-4.362 -1.396,-6.517 -1.153,-8.897 -0.021,-17.262 4.08,-25.297 3.965,-7.767 10.469,-15.379 19.06,-18.017 4.651,-1.429 9.514,-1.248 13.805,1.159 6.386,3.583 8.108,8.34 9.998,14.937 0.829,13.465 -0.625,26.424 -9.942,36.934 -4.457,5.027 -10.704,8.799 -17.523,9.182 -4.984,0.28 -9.432,-1.537 -13.081,-4.885 -2.308,-2.117 -3.718,-4.679 -5.001,-7.496 z"
     id="path44" />
  <path
     fill="#61abbf"
     d="m 481.639,434.05511 0.231,-0.154 0.621,0.344 c 0.702,2.355 1.105,4.745 1.366,7.185 1.375,12.825 -0.936,24.536 -9.431,34.627 -9.444,11.22 -34.866,28.333 -48.51,34.612 -6.396,2.944 -13.426,5.277 -20.485,5.773 -5.718,0.403 -11.721,-0.048 -17.248,-1.613 -15.653,-4.433 -38.092,-19.358 -50.185,-29.948 -9.897,-8.669 -18.635,-19.502 -19.242,-33.257 -0.176,-3.983 -0.024,-15.547 2.7,-18.509 l 0.477,0.685 c -0.409,10.903 1.039,21.334 8.788,29.689 8.245,8.89 41.978,28.891 53.641,33.691 4.921,2.026 10.322,3.526 15.665,3.727 5.88,0.221 12.305,-1.296 17.777,-3.358 11.518,-4.34 43.901,-23.353 52.646,-31.56 7.27,-6.822 11.093,-15.914 11.3,-25.866 q 0.05,-3.036 -0.111,-6.068 z"
     id="path45" />
  <path
     fill="#fefefe"
     d="m 706.788,261.19711 c 3.316,-0.678 6.636,-0.718 10.007,-0.823 4.733,10.537 10.428,20.671 15.442,31.082 l 41.026,85.233 c 3.207,6.67 6.269,13.425 9.586,20.041 3.749,7.475 8.081,14.906 10.588,22.91 19.643,5.429 53.14,14.962 69.424,25.907 5.565,3.74 10.529,8.595 13.888,14.434 q 1.387,2.368 2.368,4.931 0.981,2.563 1.531,5.252 c 3.133,15.351 1.662,46.403 1.63,62.948 -3.24,-0.12 -5.965,-0.359 -8.696,-2.264 -4.702,-3.279 -6.819,-8.831 -7.607,-14.321 -1.108,-7.715 -1.008,-18.566 2.385,-25.764 1.642,-3.484 4.095,-6.547 6.405,-9.603 l 0.673,-0.68 c -0.108,-6.74 -4.929,-15.938 -9.817,-20.559 -11.742,-11.101 -41.412,-19.663 -57.302,-25.135 -6.195,-2.133 -14.407,-4.249 -19.211,-8.887 -6.643,-6.414 -23.092,-45.534 -28.109,-55.714 -1.993,-4.28 -4.046,-7.866 -7.131,-11.464 -7.68,-12.588 -14.799,-29.31 -21.298,-42.774 -8.731,-18.085 -18.263,-36.133 -25.782,-54.75 z"
     id="path46" />
  <path
     fill="#fefefe"
     d="m 417.507,335.87211 q -1.552,-4.948 -2.264,-10.085 c -1.955,-14.814 1.181,-31.565 10.475,-43.544 5.402,-6.962 12.82,-12.19 21.753,-13.135 5.969,-0.631 11.817,0.766 16.494,4.623 7.807,6.438 10.143,16.531 10.868,26.122 -0.126,15.39 -3.519,29.735 -14.887,40.843 -5.954,5.817 -13.933,9.782 -22.398,9.504 -6.107,-0.2 -11.495,-2.806 -15.581,-7.32 -1.934,-2.136 -3.216,-4.442 -4.46,-7.008 z"
     id="path47" />
  <path
     fill="#fefefe"
     d="m 328.31,299.94411 c 1.895,-10.791 3.586,-20.792 13.402,-27.497 5.122,-3.498 11.41,-4.434 17.425,-3.113 9.3,2.041 16.664,9.038 21.552,16.929 8.102,13.079 9.799,30.938 6.223,45.723 -0.531,2.193 -1.291,4.145 -2.161,6.221 -0.242,0.576 -0.466,1.162 -0.7,1.741 -0.933,1.407 -1.896,2.865 -3.048,4.105 -4.082,4.396 -9.632,5.948 -15.463,6.172 -8.372,0.32 -16.06,-3.417 -22.019,-9.086 -11.479,-10.919 -14.762,-25.958 -15.211,-41.195 z"
     id="path48" />
  <defs
     id="defs49">
    <linearGradient
       id="gradient_1"
       gradientUnits="userSpaceOnUse"
       x1="48.169014"
       y1="575.28278"
       x2="383.71274"
       y2="661.86218"
       gradientTransform="translate(-25.728001,-98.535889)">
      <stop
         offset="0"
         stop-color="#CBF6F1"
         id="stop48" />
      <stop
         offset="1"
         stop-color="white"
         id="stop49" />
    </linearGradient>
  </defs>
  <path
     fill="url(#gradient_1)"
     d="m 21.737599,474.85611 59.6854,0.204 c 11.369,0.041 23.004001,-0.32 34.335001,0.447 1.579,0.27 3.444,-0.181 5.035,-0.401 1.753,-0.206 3.607,-0.062 5.373,-0.041 2.164,0.141 4.311,0.279 6.481,0.282 l 0.675,48.635 c 16.695,0.17 33.557,0.739 50.236,0.395 21.253,-22.434 47.578,-32.888 78.403,-33.737 31.452,-0.866 61.033,9.736 83.803,31.616 7.031,6.757 13.801,15.265 17.637,24.294 -19.775,-24.982 -50.245,-41.341 -81.883,-45.015 -23.609,-2.741 -49.633,1.1 -71.203,11.328 -7.306,3.464 -14.047,8.356 -21.439,11.521 7.215,0.167 17.628,1.654 24.433,0.44 4.127,-0.736 8.244,-2.71 12.185,-4.12 6.548,-2.344 13.357,-4.339 20.234,-5.445 34.488,-5.546 72.7,5.674 97.093,31.028 5.444,5.658 16.269,20.161 15.719,28.468 -0.016,0.24 -0.046,0.478 -0.07,0.718 -6.43,-10.63 -13.92,-19.738 -23.791,-27.367 -23.586,-18.229 -53.46,-28.452 -83.39,-24.417 -28.873,3.892 -55.531,16.116 -73.412,39.703 -7.25,12.059 -12.634,25.169 -13.779,39.31 l -7.38,0.21 c 0.605,-7.236 1.662,-20.942 0.214,-27.818 q -0.169,-0.842 -0.446,-1.655 -0.278,-0.813 -0.658,-1.584 -0.38,-0.77 -0.857,-1.484 -0.477,-0.715 -1.043,-1.361 c -2.812,-3.203 -7.307,-5.073 -11.528,-5.214 -3.176,-0.106 -6.322,0.293 -9.481,-0.183 l -10.599,-0.172 q -0.43,-7.385 -0.623,-14.781 c -0.426,-2.44 0.298,-5.393 -0.798,-7.587 -1.685,-0.848 -2.795,-0.497 -4.652,-0.349 -7.776,0.377 -15.723,0.019 -23.516001,0.033 l -60.1537,-0.27 c -6.0174,-0.066 -19.2091,0.688 -24.3836996,-0.744 -0.9507,-0.263 -2.1433,-1.328 -2.5747,-2.234 -0.6305,-1.325 -0.5139,-1.554 -0.0125,-2.828 4.1339,-3.328 12.7855996,-2.334 17.9070996,-2.314 l 5.6205,-0.671 c -1.5767,-10.961 -3.6595,-21.861 -5.1242,-32.838 -1.0598,-7.944 -1.4478,-16.022 -2.2722,-24.002 z"
     id="path49"
     style="fill:url(#gradient_1)" />
  <path
     fill="#1f677e"
     d="m 115.758,475.50711 c 1.579,0.27 3.444,-0.181 5.035,-0.401 0.148,6.094 1.056,46.995 -0.567,49.169 -1.365,0.101 -2.29,0.244 -3.526,-0.484 -1.54,-2.474 -0.882,-42.143 -0.942,-48.284 z"
     id="path50" />
  <path
     fill="#61abbf"
     d="m 23.513499,532.36711 120.664501,-0.375 c 19.263,0.041 39.014,-0.909 58.217,0.497 -9.832,6.08 -21.909,17.627 -24.425,29.44 -0.138,0.651 -0.087,0.648 -0.093,1.463 -7.25,12.059 -12.634,25.169 -13.779,39.31 l -7.38,0.21 c 0.605,-7.236 1.662,-20.942 0.214,-27.818 q -0.169,-0.842 -0.446,-1.655 -0.278,-0.813 -0.658,-1.584 -0.38,-0.77 -0.857,-1.484 -0.477,-0.715 -1.043,-1.361 c -2.812,-3.203 -7.307,-5.073 -11.528,-5.214 -3.176,-0.106 -6.322,0.293 -9.481,-0.183 l -10.599,-0.172 q -0.43,-7.385 -0.623,-14.781 c -0.426,-2.44 0.298,-5.393 -0.798,-7.587 -1.685,-0.848 -2.795,-0.497 -4.652,-0.349 -7.776,0.377 -15.723,0.019 -23.516001,0.033 l -60.1537,-0.27 c -6.0174,-0.066 -19.2091,0.688 -24.3836996,-0.744 -0.9507,-0.263 -2.1433,-1.328 -2.5747,-2.234 -0.6305,-1.325 -0.5139,-1.554 -0.0125,-2.828 4.1339,-3.328 12.7855996,-2.334 17.9070996,-2.314 z"
     id="path51" />
  <path
     fill="#fefefe"
     d="m 121.822,540.75711 c 3.957,0.027 7.918,0.091 11.875,0.072 0.017,6.065 1.38,17.104 0.365,22.289 l -1.143,0.495 -10.599,-0.172 q -0.43,-7.385 -0.623,-14.781 0.102,-3.951 0.125,-7.903 z"
     id="path52" />
  <path
     fill="#1f677e"
     d="m 631.596,276.00911 q 18.065,0.584 36.139,0.424 c 6.89,-0.045 14.515,-0.753 21.324,0.093 1.476,0.183 2.274,0.721 3.294,1.75 5.576,5.626 13.242,24.445 16.984,32.095 l 16.275,33.011 c 2.226,4.581 4.758,11.953 8.271,15.603 4.242,-0.95 8.338,-0.852 12.626,-0.336 1.191,0.143 2.525,0.581 3.7,0.511 l 3.659,-0.439 c 3.085,3.598 5.138,7.184 7.131,11.464 -1.101,0.643 -1.721,0.731 -2.061,2.042 -0.428,1.648 -0.196,3.812 -0.182,5.517 -0.987,8.042 -0.07,16.332 -0.554,24.417 0.239,6.159 1.589,15.379 -3.086,20.187 -3.578,3.68 -9.739,4.239 -14.615,4.14 -4.612,-0.094 -9.555,-1.089 -12.781,-4.653 -2.701,-2.983 -3.501,-7.102 -3.425,-11.026 -0.076,-1.18 -0.063,-2.752 -0.413,-3.865 -0.578,-1.843 -2.943,-1.403 -4.541,-1.397 l -66.362,0.058 c -5.435,0.057 -20.089,1.52 -24.382,-0.987 -1.452,-2.785 -1.906,-5.683 -2.073,-8.794 -0.438,-8.132 -0.056,-16.465 -0.052,-24.613 l 0.034,-47.424 0.026,-25.73 c -0.008,-4.532 -0.462,-9.46 0.176,-13.945 0.527,-3.704 1.874,-5.936 4.888,-8.103 z"
     id="path53" />
  <path
     fill="#83cbd5"
     d="m 632.083,284.55611 c 0.26,-0.462 0.654,-1.316 1.044,-1.718 0.128,-0.133 0.753,-0.651 1.012,-0.722 2.143,-0.585 47.841,-0.797 51.647,-0.261 1.747,0.246 1.821,0.806 2.803,2.13 -6.296,1.458 -49.153,1.222 -56.506,0.571 z"
     id="path54" />
  <defs
     id="defs55">
    <linearGradient
       id="gradient_2"
       gradientUnits="userSpaceOnUse"
       x1="750.15588"
       y1="495.28671"
       x2="789.09827"
       y2="483.2814"
       gradientTransform="translate(-25.728001,-98.535889)">
      <stop
         offset="0"
         stop-color="#2F728E"
         id="stop54" />
      <stop
         offset="1"
         stop-color="#408FA4"
         id="stop55" />
    </linearGradient>
  </defs>
  <path
     fill="url(#gradient_2)"
     d="m 733.883,358.98511 c 4.242,-0.95 8.338,-0.852 12.626,-0.336 1.191,0.143 2.525,0.581 3.7,0.511 l 3.659,-0.439 c 3.085,3.598 5.138,7.184 7.131,11.464 -1.101,0.643 -1.721,0.731 -2.061,2.042 -0.428,1.648 -0.196,3.812 -0.182,5.517 -0.987,8.042 -0.07,16.332 -0.554,24.417 -0.128,-1.234 -0.232,-2.46 -0.504,-3.673 l -0.676,0.871 -0.246,-0.727 -0.456,-0.365 0.223,-0.437 c -0.184,2.656 0.085,5.312 -0.213,7.96 -0.502,4.471 -1.941,9.304 -5.686,12.131 -4.584,3.461 -10.627,2.923 -15.988,2.291 -1.357,-0.944 -2.841,-1.88 -3.911,-3.156 -0.934,-1.113 -1.407,-2.11 -1.615,-3.542 -0.827,-5.684 -0.329,-11.977 -0.433,-17.73 -0.168,-9.31 -0.899,-19.039 -0.116,-28.317 0.51,-0.678 1.004,-1.328 1.418,-2.072 0.086,-0.156 0.165,-0.317 0.248,-0.476 q 1.845,-2.951 3.636,-5.934 z"
     id="path55"
     style="fill:url(#gradient_2)" />
  <path
     fill="#fefefe"
     d="m 733.883,358.98511 c 4.242,-0.95 8.338,-0.852 12.626,-0.336 1.191,0.143 2.525,0.581 3.7,0.511 2.672,1.907 4.258,3.142 5.378,6.267 -0.182,2.58 -0.744,3.884 -2.583,5.693 -1.021,0.314 -1.384,0.562 -2.405,0.057 -2.378,-1.177 -3.661,-4.595 -6.025,-5.668 -4.163,-1.889 -9.867,0.159 -14.327,-0.59 q 1.845,-2.951 3.636,-5.934 z"
     id="path56" />
  <defs
     id="defs57">
    <linearGradient
       id="gradient_3"
       gradientUnits="userSpaceOnUse"
       x1="642.24158"
       y1="403.62479"
       x2="750.24805"
       y2="495.44379"
       gradientTransform="translate(-25.728001,-98.535889)">
      <stop
         offset="0"
         stop-color="#D9F8FB"
         id="stop56" />
      <stop
         offset="1"
         stop-color="white"
         id="stop57" />
    </linearGradient>
  </defs>
  <path
     fill="url(#gradient_3)"
     d="m 688.589,283.98511 c 8.278,15.307 15.641,31.32 23.236,46.981 5.029,10.369 11.042,21.069 14.805,31.959 -4.57,9.947 -2.779,26.674 -2.525,37.661 q -29.667,0.157 -59.333,-0.037 c -10.809,0.014 -21.864,0.571 -32.648,-10e-4 -0.657,-11.604 -0.304,-23.364 -0.314,-34.994 l -0.03,-59.287 c 0.024,-7.233 0.366,-14.484 0.303,-21.711 7.353,0.651 50.21,0.887 56.506,-0.571 z"
     id="path57"
     style="fill:url(#gradient_3)" />
  <path
     fill="#fefefe"
     d="m 321.933,433.80011 c 1.13,-5.254 2.213,-10.325 4.368,-15.298 6.877,-15.878 22.313,-28.902 36.505,-38.09 15.608,-10.105 32.353,-15.848 51.001,-11.834 21.478,4.624 47.193,24.32 58.984,42.612 3.351,5.199 5.649,10.566 7.312,16.518 0.551,1.974 0.712,4.525 1.536,6.347 q 0.161,3.032 0.111,6.068 c -0.207,9.952 -4.03,19.044 -11.3,25.866 -8.745,8.207 -41.128,27.22 -52.646,31.56 -5.472,2.062 -11.897,3.579 -17.777,3.358 -5.343,-0.201 -10.744,-1.701 -15.665,-3.727 -11.663,-4.8 -45.396,-24.801 -53.641,-33.691 -7.749,-8.355 -9.197,-18.786 -8.788,-29.689 z"
     id="path58" />
  <path
     fill="#1f677e"
     d="m 122.223,284.08811 c 1.578,-24.156 0.476,-48.476 20.399,-65.898 11.781,-10.303 26.56,-14.882 41.819,-16.911 20.301,-2.699 43.805,-1.285 64.456,-1.259 l 107.194,-0.059 144.516,-0.003 44.401,0.007 c 11.993,-0.014 23.979,-0.232 35.948,0.647 31.998,2.351 85.133,10.601 113.1,26.247 6.143,3.436 11.381,7.488 15.973,12.829 9.146,10.637 16.228,28.333 22.522,41.199 l 43.291,89.569 14.171,29.347 c 2.637,5.446 4.985,11.302 8.293,16.371 19.283,4.983 51.74,14.413 67.778,25.245 5.814,3.926 10.896,8.989 14.503,15.029 9.065,15.183 7.236,42.036 6.958,59.646 0.071,11.778 0.549,23.757 -0.044,35.511 5.226,0.559 9.887,1.457 13.366,5.833 5.658,7.118 3.462,26.479 3.383,35.541 -1.452,8.127 -4.153,13.379 -9.696,19.463 -1.592,12.65 -30.417,59.045 -38.492,70.809 -4.003,5.831 -17.882,22.068 -18.754,27.644 -8.206,0.12 -16.9,-1.299 -25.124,-1.873 -9.416,-0.658 -49.713,-1.715 -55.471,-4.267 -2.649,1.013 -5.399,3.055 -8.004,4.365 -6.739,3.39 -13.739,5.75 -21.089,7.451 -21.175,4.899 -45.826,2.465 -65.351,-7.305 -4.775,-2.389 -9.358,-5.688 -13.912,-8.508 -3.856,2.005 -79.604,0.344 -89.111,0.241 q -81.964,-0.827 -163.928,0.026 -25.969,0.429 -51.942,0.513 c -6.642,0.039 -14.563,1.022 -21.025,-0.263 -4.616,2.927 -9.456,6.075 -14.409,8.393 q -1.864,0.865 -3.763,1.653 -1.898,0.787 -3.827,1.497 -1.928,0.709 -3.885,1.339 -1.956,0.63 -3.936,1.179 -1.981,0.55 -3.982,1.018 -2.001,0.467 -4.02,0.853 -2.019,0.385 -4.051,0.688 -2.033,0.302 -4.077,0.521 -2.043,0.22 -4.094,0.355 -2.051,0.135 -4.105,0.186 -2.055,0.051 -4.11,0.018 -2.054,-0.032 -4.106,-0.149 -2.052,-0.117 -4.097,-0.318 -2.046,-0.201 -4.081,-0.486 -2.036,-0.284 -4.058,-0.652 -2.022,-0.367 -4.027,-0.817 c -10.818,-2.433 -20.03,-6.462 -29.508,-12.144 q -4.114,-2.601 -7.946,-5.603 -3.831,-3.002 -7.341,-6.374 -0.889,-0.852 -1.757,-1.726 -0.868,-0.873 -1.714,-1.768 -0.847,-0.895 -1.671,-1.81 -0.824,-0.916 -1.625,-1.851 -0.801,-0.936 -1.579,-1.891 -0.778,-0.954 -1.532,-1.928 -0.754,-0.974 -1.484,-1.966 -0.73,-0.992 -1.435,-2.001 -0.705,-1.01 -1.385,-2.037 -0.681,-1.026 -1.335,-2.07 -0.655,-1.043 -1.284,-2.102 -0.629,-1.059 -1.231,-2.133 -0.603,-1.074 -1.179,-2.162 -0.576,-1.089 -1.125,-2.191 -0.548,-1.103 -1.07,-2.219 -0.522,-1.115 -1.016,-2.243 -0.494,-1.129 -0.96,-2.269 -0.466,-1.14 -0.904,-2.291 -0.438,-1.151 -0.847,-2.312 -0.409,-1.162 -0.79,-2.333 -0.381,-1.171 -0.732,-2.352 -0.352,-1.18 -0.675,-2.369 -0.322,-1.188 -0.615,-2.384 -0.294,-1.197 -0.557,-2.4 -0.264,-1.203 -0.498,-2.412 -0.234,-1.209 -0.438,-2.424 -0.204,-1.214 -0.378,-2.433 -0.174,-1.22 -0.318,-2.443 -0.144,-1.223 -0.258,-2.449 -0.114,-1.226 -0.198,-2.455 -0.083,-1.229 -0.137,-2.459 -0.053,-1.231 -0.076,-2.462 c -15.869,-0.653 -37.496,2.682 -51.844,-5.138 -7.008,-3.819 -12.537,-9.959 -14.78,-17.71 -2.293001,-7.927 -2.647001,-20.421 1.613,-27.73 3.082,-5.289 8.157,-6.866 13.71,-8.284 q -0.195,-11.253 -0.577,-22.501 c 1.857,-0.148 2.967,-0.499 4.652,0.349 1.096,2.194 0.372,5.147 0.798,7.587 q 0.193,7.396 0.623,14.781 l 10.599,0.172 c 3.159,0.476 6.305,0.077 9.481,0.183 4.221,0.141 8.716,2.011 11.528,5.214 q 0.566,0.646 1.043,1.361 0.477,0.714 0.857,1.484 0.38,0.771 0.658,1.584 0.277,0.813 0.446,1.655 c 1.448,6.876 0.391,20.582 -0.214,27.818 l 7.38,-0.21 c 1.145,-14.141 6.529,-27.251 13.779,-39.31 17.881,-23.587 44.539,-35.811 73.412,-39.703 29.93,-4.035 59.804,6.188 83.39,24.417 9.871,7.629 17.361,16.737 23.791,27.367 3.839,9.244 7.04,17.994 9.066,27.83 3.669,-0.124 7.325,-0.304 10.991,-0.05 23.071,0.43 46.328,-0.283 69.423,-0.3 l 145.385,0.031 11.137,-0.002 c 1.421,-8.492 4.189,-17.185 7.523,-25.131 7.125,-12.841 15.973,-23.71 27.841,-32.472 23.818,-17.586 55.144,-25.983 84.527,-21.429 29.338,4.547 54.148,18.494 71.725,42.505 1.439,3.16 3.452,6.027 4.912,9.178 3.914,8.443 5.861,18.147 7.211,27.298 3.486,0.012 6.988,-0.045 10.471,0.066 l 5.523,0.339 c 0.107,-7.709 -1.435,-22.012 0.754,-28.763 -0.246,-0.766 -0.378,-1.46 -0.398,-2.266 -0.11,-4.325 1.102,-8.797 4.274,-11.891 1.814,-1.769 3.962,-2.64 6.422,-3.117 6.984,-1.354 15.045,-0.707 22.143,-0.622 q 16.483,0.282 32.968,0.18 c -1.8,-0.385 -3.355,-0.372 -5.189,-0.284 l -1.945,-0.181 c -2.236,-2.641 -1.122,-11.342 -1.043,-14.994 l 0.087,-8.286 c 0.032,-16.545 1.503,-47.597 -1.63,-62.948 q -0.55,-2.689 -1.531,-5.252 -0.981,-2.563 -2.368,-4.931 c -3.359,-5.839 -8.323,-10.694 -13.888,-14.434 -16.284,-10.945 -49.781,-20.478 -69.424,-25.907 -2.507,-8.004 -6.839,-15.435 -10.588,-22.91 -3.317,-6.616 -6.379,-13.371 -9.586,-20.041 l -41.026,-85.233 c -5.014,-10.411 -10.709,-20.545 -15.442,-31.082 l -1.138,-2.823 c -1.137,-2.163 -2.223,-4.27 -3.716,-6.219 -3.927,0.056 -7.862,0.162 -11.79,0.131 -23.406,-20.437 -76.701,-29.694 -107.301,-33.153 -24.837,-2.807 -50.668,-1.512 -75.646,-1.503 l -119.029,-0.002 -132.903,0.05 -44.772,0.012 c -8.502,0.034 -17.115,-0.16 -25.601,0.42 -16.655,1.137 -31.141,5.606 -42.43,18.59 q -1.708,1.992 -3.194,4.155 -1.485,2.163 -2.732,4.472 -1.246,2.309 -2.239,4.738 -0.994,2.429 -1.722,4.95 c -3.146,11.237 -3.191,24.041 -3.946,35.669 q -1.911,30.878 -3.193,61.789 c -2.274,-0.072 -4.697,-0.334 -6.955,-0.107 -1.525,-0.009 -2.825,-0.014 -4.298,-0.49 -0.615,0.167 -0.999,0.285 -1.653,0.391 -1.416,0.231 -1.934,0.067 -3.078,-0.742 l -0.319,-2.102 c 0.4,-19.567 2.05,-39.058 2.699,-58.606 z"
     id="path59" />
  <path
     fill="#357d9b"
     d="m 629.416,566.88511 c 4.876,-6.38 10.81,-12.432 17.217,-17.276 l 1.334,0.366 c -3.283,3.966 -14.284,14.266 -18.551,16.91 z"
     id="path60" />
  <path
     fill="#61abbf"
     d="m 273.918,531.41611 c -15.816,-0.362 -31.681,0.61 -46.62,6.299 -5.041,1.92 -9.77,5.142 -14.838,6.782 9.786,-9.484 33.177,-16.89 46.598,-16.903 4.969,0.644 10.98,0.224 14.86,3.822 z"
     id="path61" />
  <path
     fill="#61abbf"
     d="m 259.058,527.59411 c 23.128,-1.998 44.367,6.123 62.48,20.338 0.881,0.692 0.443,0.437 1.409,0.836 l -0.285,0.317 0.997,0.587 c -4.626,-0.524 -9.499,-5.794 -14.006,-7.619 -11.409,-4.621 -23.273,-9.761 -35.735,-10.637 -3.88,-3.598 -9.891,-3.178 -14.86,-3.822 z"
     id="path62" />
  <path
     fill="#61abbf"
     d="m 898.757,567.87711 c 0.314,9.01 2.402,29.638 -3.933,36.625 -0.317,0.35 -0.497,0.406 -0.873,0.594 l -0.202,-0.164 c 0.998,-8.278 -3.334,-27.362 -0.156,-34.406 2.119,-0.106 3.536,-1.421 5.164,-2.649 z"
     id="path63" />
  <path
     fill="#357d9b"
     d="m 824.959,574.57311 c 1.116,-3.116 2.634,-6.696 5.353,-8.744 1.492,-1.125 3.042,-1.431 4.848,-1.679 8.155,-1.115 17.191,-0.503 25.433,-0.543 8.944,-0.043 18.838,-0.906 27.655,0.453 2.099,2.021 3.706,4.066 5.345,6.466 -3.178,7.044 1.154,26.128 0.156,34.406 -0.365,-0.116 -0.714,-0.375 -1.044,-0.57 -1.836,-9.543 0.043,-19.637 -0.348,-29.268 -0.137,-3.39 -0.685,-6.779 -3.345,-9.142 -1.064,-0.944 -2.069,-1.096 -3.433,-1.275 -6.024,-0.789 -12.709,-0.26 -18.795,-0.259 -8.773,0.003 -17.76,-0.368 -26.513,0.193 -3.11,0.199 -8.828,0.646 -10.843,3.144 -7.19,8.914 -4.246,27.836 -4.305,38.945 -0.017,3.309 -1.076,6.779 -0.684,10.002 0.618,0.108 1.234,0.235 1.856,0.318 0.195,0.026 0.393,0.03 0.589,0.045 l -0.774,0.461 c -1.546,-0.03 -2.986,-0.021 -4.487,-0.449 -3.011,-3.132 -2.757,-9.956 -2.941,-14.08 l 5.523,0.339 c 0.107,-7.709 -1.435,-22.012 0.754,-28.763 z"
     id="path64" />
  <path
     fill="#61abbf"
     d="m 646.633,549.60911 c 3.385,-2.412 6.528,-5.29 9.996,-7.544 2.836,-1.842 6.283,-3.255 9.329,-4.734 17.862,-8.671 36.706,-12.177 56.441,-8.813 10.34,1.763 19.08,5.183 28.155,10.332 1.913,1.085 4.467,2.307 5.9,3.992 l -0.172,0.239 c -4.713,-1.813 -9.134,-4.734 -13.839,-6.301 q -1.198,-0.403 -2.405,-0.779 -1.207,-0.375 -2.422,-0.722 -1.216,-0.348 -2.439,-0.667 -1.223,-0.319 -2.453,-0.61 -1.23,-0.291 -2.467,-0.554 -1.236,-0.262 -2.478,-0.496 -1.242,-0.234 -2.49,-0.439 -1.247,-0.205 -2.499,-0.382 -1.251,-0.176 -2.507,-0.323 -1.255,-0.148 -2.514,-0.266 -1.258,-0.119 -2.519,-0.208 -1.261,-0.089 -2.523,-0.149 -1.263,-0.061 -2.527,-0.092 -1.263,-0.031 -2.527,-0.033 -1.265,-0.002 -2.528,0.026 -1.264,0.027 -2.527,0.084 -1.263,0.056 -2.524,0.142 -1.261,0.085 -2.52,0.2 -1.259,0.115 -2.514,0.258 -1.256,0.144 -2.508,0.317 -1.253,0.172 -2.5,0.374 -1.248,0.201 -2.491,0.431 -1.243,0.231 -2.48,0.49 -1.238,0.258 -2.469,0.546 -1.231,0.287 -2.455,0.603 -1.224,0.315 -2.44,0.659 -1.216,0.344 -2.424,0.716 -1.209,0.372 -2.408,0.771 -1.199,0.4 -2.389,0.827 -1.189,0.427 -2.369,0.882 -1.179,0.454 -2.348,0.936 -1.169,0.481 -2.326,0.99 c -5.045,2.268 -11.713,5.518 -15.486,9.663 z"
     id="path65" />
  <path
     fill="#fefefe"
     d="m 114.249,568.59811 c 6.972,-0.311 25.709,-1.148 31.935,0.32 2.539,0.598 5.623,1.887 6.978,4.272 1.154,2.028 1.657,5.837 0.827,8.043 -0.413,1.096 -0.64,1.128 -1.64,1.586 -1.574,-0.769 -1.976,-1.927 -2.896,-3.39 -0.51,-0.596 -0.501,-0.611 -1.138,-1.217 -4.786,-4.55 -34.866,-2.273 -42.33,-2.13 2.497,-3.494 4.317,-5.514 8.264,-7.484 z"
     id="path66" />
  <path
     fill="#fefefe"
     d="m 824.959,574.57311 c -0.246,-0.766 -0.378,-1.46 -0.398,-2.266 -0.11,-4.325 1.102,-8.797 4.274,-11.891 1.814,-1.769 3.962,-2.64 6.422,-3.117 6.984,-1.354 15.045,-0.707 22.143,-0.622 q 16.483,0.282 32.968,0.18 c 2.701,0.591 5.202,1.208 6.861,3.611 1.557,2.255 1.632,4.77 1.528,7.409 -1.628,1.228 -3.045,2.543 -5.164,2.649 -1.639,-2.4 -3.246,-4.445 -5.345,-6.466 -8.817,-1.359 -18.711,-0.496 -27.655,-0.453 -8.242,0.04 -17.278,-0.572 -25.433,0.543 -1.806,0.248 -3.356,0.554 -4.848,1.679 -2.719,2.048 -4.237,5.628 -5.353,8.744 z"
     id="path67" />
  <path
     fill="#61abbf"
     d="m 378.527,603.25311 c 23.071,0.43 46.328,-0.283 69.423,-0.3 l 145.385,0.031 c -2.502,5.178 -5.122,10.508 -9.091,14.749 -10.164,1.865 -21.679,1.005 -32.01,1.004 q -27.089,0.131 -54.177,-0.198 l -61.645,0.002 c -13.453,0.074 -27.075,0.519 -40.509,-0.068 -2.584,-0.113 -6.1,-0.02 -8.253,-1.604 -3.909,-2.877 -7.241,-9.204 -9.123,-13.616 z"
     id="path68" />
  <path
     fill="#cdf8f0"
     d="m 803.555,621.97811 c 14.179,-0.176 28.378,0.041 42.558,0.086 10.701,0.034 22.358,0.987 32.798,-1.639 6.036,-1.518 10.724,-4.257 15.643,-7.983 -1.592,12.65 -30.417,59.045 -38.492,70.809 -4.003,5.831 -17.882,22.068 -18.754,27.644 -8.206,0.12 -16.9,-1.299 -25.124,-1.873 -9.416,-0.658 -49.713,-1.715 -55.471,-4.267 q 7.841,-4.926 14.681,-11.168 c 20.442,-18.902 31.103,-44.055 32.161,-71.609 z"
     id="path69" />
  <path
     fill="#fefefe"
     d="m 124.19,351.05311 c -0.177,-19.522 1.573,-39.299 2.749,-58.783 0.912,-15.124 0.005,-32.817 4.705,-47.291 4.533,-13.959 14.113,-24.503 27.126,-31.139 9.739,-4.967 20.248,-7.284 31.095,-8.099 8.777,-0.66 17.629,-0.385 26.424,-0.38 l 40.748,-0.012 132.284,0.005 127.864,0.016 40.685,-0.014 c 8.833,0.009 17.775,-0.202 26.586,0.442 28.729,2.1 58.671,7.833 86.091,16.647 15.65,5.03 33.552,13.554 41.394,28.887 -3.927,0.056 -7.862,0.162 -11.79,0.131 -23.406,-20.437 -76.701,-29.694 -107.301,-33.153 -24.837,-2.807 -50.668,-1.512 -75.646,-1.503 l -119.029,-0.002 -132.903,0.05 -44.772,0.012 c -8.502,0.034 -17.115,-0.16 -25.601,0.42 -16.655,1.137 -31.141,5.606 -42.43,18.59 q -1.708,1.992 -3.194,4.155 -1.485,2.163 -2.732,4.472 -1.246,2.309 -2.239,4.738 -0.994,2.429 -1.722,4.95 c -3.146,11.237 -3.191,24.041 -3.946,35.669 q -1.911,30.878 -3.193,61.789 c -2.274,-0.072 -4.697,-0.334 -6.955,-0.107 -1.525,-0.009 -2.825,-0.014 -4.298,-0.49 z"
     id="path70" />
  <path
     fill="#cdf8f0"
     d="m 213.773,616.82611 c 1.014,-13.296 7.806,-25.679 17.828,-34.34 10.489,-9.063 24.932,-12.961 38.632,-11.871 14.212,1.131 26.743,7.141 35.989,18.068 6.193,7.319 11.959,19.298 11.986,29.062 1.126,4.871 0.556,10.876 -0.449,15.728 -2.777,13.402 -11.094,25.902 -22.635,33.297 q -1.121,0.724 -2.277,1.391 -1.156,0.667 -2.343,1.275 -1.187,0.609 -2.404,1.158 -1.216,0.549 -2.458,1.036 -1.242,0.488 -2.507,0.913 -1.265,0.425 -2.549,0.786 -1.285,0.362 -2.586,0.659 -1.301,0.297 -2.615,0.53 -1.314,0.232 -2.638,0.398 -1.324,0.166 -2.654,0.267 -1.331,0.1 -2.665,0.134 -1.334,0.034 -2.668,0.001 -1.334,-0.033 -2.664,-0.131 -1.331,-0.099 -2.655,-0.264 -1.324,-0.166 -2.639,-0.396 -1.314,-0.231 -2.615,-0.527 -1.297,-0.282 -2.578,-0.628 -1.28,-0.347 -2.542,-0.757 -1.262,-0.41 -2.502,-0.882 -1.24,-0.472 -2.455,-1.006 -1.215,-0.534 -2.401,-1.128 -1.187,-0.594 -2.342,-1.247 -1.156,-0.652 -2.277,-1.362 -1.121,-0.709 -2.206,-1.474 -1.084,-0.764 -2.129,-1.582 -1.045,-0.818 -2.047,-1.687 -1.003,-0.869 -1.961,-1.787 -0.958,-0.918 -1.869,-1.883 -0.911,-0.965 -1.772,-1.974 -0.862,-1.009 -1.672,-2.06 -0.81,-1.051 -1.566,-2.141 -0.757,-1.09 -1.458,-2.217 c -5.746,-9.263 -9.115,-22.558 -6.637,-33.359 z"
     id="path71" />
  <path
     fill="#83cbd5"
     d="m 213.773,616.82611 c 0.296,4.423 -0.822,12.09 1.43,15.803 1.293,0.353 2.263,0.602 3.626,0.436 1.138,-1.93 -0.344,-9.533 -0.277,-12.594 2.191,15.583 5.895,27.421 18.957,37.374 9.413,7.173 21.76,11.257 33.599,9.61 12.544,-1.745 24.812,-8.565 32.447,-18.721 4.472,-5.948 6.29,-12.038 7.938,-19.188 0.395,-1.715 1.217,-4.092 0.964,-5.818 -0.036,-0.248 -0.088,-0.494 -0.132,-0.741 l 0.435,-0.779 h -0.06 l 0.337,0.795 -0.733,-0.072 -0.199,0.538 0.729,0.247 c -0.342,3.259 -0.88,6.436 -1.498,9.653 2.349,-0.684 4.64,-0.96 5.921,-3.285 1.773,-3.22 -0.655,-8.458 0.951,-12.339 1.126,4.871 0.556,10.876 -0.449,15.728 -2.777,13.402 -11.094,25.902 -22.635,33.297 q -1.121,0.724 -2.277,1.391 -1.156,0.667 -2.343,1.275 -1.187,0.609 -2.404,1.158 -1.216,0.549 -2.458,1.036 -1.242,0.488 -2.507,0.913 -1.265,0.425 -2.549,0.786 -1.285,0.362 -2.586,0.659 -1.301,0.297 -2.615,0.53 -1.314,0.232 -2.638,0.398 -1.324,0.166 -2.654,0.267 -1.331,0.1 -2.665,0.134 -1.334,0.034 -2.668,0.001 -1.334,-0.033 -2.664,-0.131 -1.331,-0.099 -2.655,-0.264 -1.324,-0.166 -2.639,-0.396 -1.314,-0.231 -2.615,-0.527 -1.297,-0.282 -2.578,-0.628 -1.28,-0.347 -2.542,-0.757 -1.262,-0.41 -2.502,-0.882 -1.24,-0.472 -2.455,-1.006 -1.215,-0.534 -2.401,-1.128 -1.187,-0.594 -2.342,-1.247 -1.156,-0.652 -2.277,-1.362 -1.121,-0.709 -2.206,-1.474 -1.084,-0.764 -2.129,-1.582 -1.045,-0.818 -2.047,-1.687 -1.003,-0.869 -1.961,-1.787 -0.958,-0.918 -1.869,-1.883 -0.911,-0.965 -1.772,-1.974 -0.862,-1.009 -1.672,-2.06 -0.81,-1.051 -1.566,-2.141 -0.757,-1.09 -1.458,-2.217 c -5.746,-9.263 -9.115,-22.558 -6.637,-33.359 z"
     id="path72" />
  <path
     fill="#83cbd5"
     d="m 225.2,624.04711 c -1.643,-4.482 0.1,-12.638 1.53,-17.082 3.186,-9.899 10.951,-17.727 20.153,-22.353 9.283,-4.667 23.221,-5.649 33.06,-2.309 10.65,3.616 20.198,12.965 25.097,22.942 l -0.394,0.881 c 2.333,7.607 -1.659,15.399 1.824,23.098 -4.519,13.116 -11.245,22.691 -23.909,28.964 -3.732,1.848 -12.895,5.353 -16.805,3.768 -0.197,-0.08 -0.381,-0.187 -0.572,-0.281 0.262,-0.137 0.526,-0.27 0.785,-0.411 4.95,-2.685 9.519,-6.103 13.96,-9.551 11.118,-8.632 19.35,-16.732 23.285,-30.561 0.713,-8.922 0.299,-17.779 -5.907,-24.932 -3.117,-3.593 -7.213,-5.856 -12.015,-6.017 -6.1,-0.206 -11.437,2.696 -15.722,6.842 -1.524,1.475 -2.862,3.12 -4.124,4.82 -3.621,-5.513 -7.185,-9.977 -14.059,-11.303 -4.799,-0.925 -9.693,-0.047 -13.682,2.825 -5.514,3.968 -8.911,10.38 -9.794,17.039 -0.558,4.214 -0.207,8.381 0.569,12.538 6.192,17.545 21.755,28.149 36.132,38.731 -0.469,0.137 -0.583,0.189 -1.137,0.239 -7.819,0.701 -18.444,-4.804 -24.196,-9.823 q -0.761,-0.66 -1.489,-1.355 -0.727,-0.697 -1.42,-1.427 -0.693,-0.731 -1.349,-1.495 -0.656,-0.764 -1.274,-1.558 -0.618,-0.795 -1.196,-1.62 -0.579,-0.824 -1.116,-1.676 -0.537,-0.851 -1.032,-1.728 -0.495,-0.877 -0.947,-1.777 -0.451,-0.9 -0.858,-1.821 -0.407,-0.921 -0.769,-1.861 -0.361,-0.939 -0.676,-1.896 -0.315,-0.956 -0.583,-1.927 -0.267,-0.97 -0.487,-1.953 -0.22,-0.983 -0.392,-1.975 -0.172,-0.992 -0.294,-1.991 -0.123,-1 -0.197,-2.004 z"
     id="path73" />
  <path
     fill="#fefefe"
     d="m 228.48,622.96411 c -0.776,-4.157 -1.127,-8.324 -0.569,-12.538 0.883,-6.659 4.28,-13.071 9.794,-17.039 3.989,-2.872 8.883,-3.75 13.682,-2.825 6.874,1.326 10.438,5.79 14.059,11.303 1.262,-1.7 2.6,-3.345 4.124,-4.82 4.285,-4.146 9.622,-7.048 15.722,-6.842 4.802,0.161 8.898,2.424 12.015,6.017 6.206,7.153 6.62,16.01 5.907,24.932 -3.935,13.829 -12.167,21.929 -23.285,30.561 -4.441,3.448 -9.01,6.866 -13.96,9.551 -0.259,0.141 -0.523,0.274 -0.785,0.411 l -0.572,0.02 c -14.377,-10.582 -29.94,-21.186 -36.132,-38.731 z"
     id="path74" />
  <path
     fill="#cdf8f0"
     d="m 653.674,617.13211 q 0.103,-1.264 0.268,-2.522 0.166,-1.258 0.393,-2.506 0.227,-1.248 0.516,-2.483 0.288,-1.236 0.638,-2.455 0.349,-1.22 0.758,-2.421 0.409,-1.2 0.877,-2.379 0.468,-1.179 0.994,-2.334 0.526,-1.155 1.108,-2.282 0.582,-1.127 1.219,-2.224 0.637,-1.097 1.328,-2.161 0.691,-1.064 1.433,-2.093 0.742,-1.029 1.535,-2.019 0.792,-0.991 1.632,-1.942 0.84,-0.95 1.726,-1.858 0.887,-0.908 1.816,-1.77 0.93,-0.863 1.902,-1.679 c 10.985,-9.302 25.697,-12.61 39.829,-11.286 q 1.281,0.116 2.555,0.296 1.273,0.181 2.536,0.424 1.263,0.244 2.512,0.55 1.25,0.307 2.482,0.675 1.232,0.369 2.445,0.799 1.212,0.43 2.401,0.919 1.19,0.49 2.353,1.039 1.164,0.549 2.298,1.155 1.134,0.606 2.237,1.268 1.103,0.662 2.171,1.379 1.068,0.716 2.1,1.486 1.031,0.769 2.022,1.588 0.991,0.82 1.94,1.688 0.949,0.868 1.854,1.783 0.904,0.914 1.762,1.873 0.857,0.959 1.666,1.959 c 6.397,7.776 9.866,16.64 11.469,26.509 1.329,8.399 0.147,18.101 -3.049,25.979 q -0.483,1.211 -1.026,2.397 -0.543,1.185 -1.144,2.342 -0.601,1.157 -1.259,2.283 -0.659,1.125 -1.372,2.216 -0.714,1.092 -1.481,2.146 -0.767,1.054 -1.586,2.069 -0.819,1.014 -1.687,1.987 -0.869,0.973 -1.785,1.901 -0.916,0.928 -1.877,1.809 -0.961,0.881 -1.965,1.713 -1.003,0.832 -2.048,1.613 -1.044,0.781 -2.125,1.509 -1.082,0.728 -2.199,1.401 -1.117,0.673 -2.266,1.289 -1.149,0.617 -2.327,1.175 -1.178,0.558 -2.383,1.057 -1.249,0.528 -2.523,0.993 -1.273,0.466 -2.569,0.867 -1.295,0.401 -2.609,0.737 -1.313,0.337 -2.642,0.607 -1.329,0.27 -2.67,0.474 -1.34,0.204 -2.689,0.341 -1.349,0.137 -2.704,0.206 -1.354,0.07 -2.71,0.072 -1.356,0.002 -2.71,-0.064 -1.355,-0.065 -2.704,-0.198 -1.35,-0.133 -2.691,-0.333 -1.341,-0.2 -2.671,-0.467 -1.329,-0.267 -2.644,-0.599 -1.315,-0.332 -2.611,-0.73 -1.296,-0.397 -2.571,-0.859 -1.276,-0.462 -2.526,-0.986 -1.166,-0.501 -2.307,-1.058 -1.14,-0.557 -2.252,-1.17 -1.112,-0.613 -2.192,-1.279 -1.081,-0.666 -2.127,-1.385 -1.047,-0.719 -2.056,-1.488 -1.01,-0.769 -1.981,-1.586 -0.971,-0.818 -1.901,-1.682 -0.93,-0.864 -1.816,-1.773 -0.886,-0.909 -1.727,-1.86 -0.84,-0.951 -1.633,-1.943 -0.793,-0.991 -1.536,-2.02 -0.744,-1.029 -1.435,-2.093 -0.692,-1.064 -1.331,-2.161 -0.639,-1.097 -1.224,-2.224 -0.584,-1.127 -1.112,-2.281 -0.529,-1.154 -1,-2.333 c -2.31,-5.765 -5.75,-19.84 -3.322,-25.587 z"
     id="path75" />
  <path
     fill="#b1e6e6"
     d="m 735.678,592.22211 c 6.534,6.585 11.078,12.635 11,22.393 -0.045,5.587 0.696,13.561 -1.528,18.489 -0.035,-0.343 -0.08,-0.675 -0.053,-1.024 0.283,-3.653 -0.225,-7.22 -0.594,-10.868 -0.256,0.906 -0.481,1.815 -0.71,2.728 l -0.807,0.41 c 0.368,-4.347 1.335,-8.175 1.088,-12.648 -0.449,-8.137 -4.088,-13.615 -9.933,-18.839 z"
     id="path76" />
  <path
     fill="#83cbd5"
     d="m 653.674,617.13211 0.105,0.741 c 0.815,6.098 -0.464,14.866 2.902,20.259 1.61,0.057 2.398,0.308 3.793,-0.548 1.559,-4.649 -3.137,-10.441 -1.787,-15.832 0.792,0.741 1.044,7.659 1.52,9.362 5.966,21.354 24.131,37.138 46.937,36.473 q 1.198,-0.037 2.393,-0.135 1.194,-0.097 2.382,-0.254 1.188,-0.157 2.367,-0.374 1.179,-0.216 2.346,-0.491 1.166,-0.275 2.317,-0.608 1.152,-0.334 2.285,-0.724 1.133,-0.39 2.245,-0.837 1.112,-0.447 2.201,-0.948 1.088,-0.502 2.15,-1.058 1.062,-0.555 2.095,-1.164 1.033,-0.608 2.034,-1.267 1.001,-0.659 1.968,-1.367 0.966,-0.708 1.897,-1.464 0.93,-0.756 1.821,-1.558 0.891,-0.801 1.741,-1.646 0.85,-0.845 1.656,-1.732 c 8.276,-8.982 10.769,-19.908 12.107,-31.769 1.464,2.398 -0.773,9.384 -1.441,12.173 q -0.59,2.528 -1.489,4.963 l 0.552,0.247 c 2.491,-1.18 5.243,-2.366 6.19,-5.111 1.817,-5.266 -0.318,-11.254 1.488,-16.355 1.329,8.399 0.147,18.101 -3.049,25.979 q -0.483,1.211 -1.026,2.397 -0.543,1.185 -1.144,2.342 -0.601,1.157 -1.259,2.283 -0.659,1.125 -1.372,2.216 -0.714,1.092 -1.481,2.146 -0.767,1.054 -1.586,2.069 -0.819,1.014 -1.687,1.987 -0.869,0.973 -1.785,1.901 -0.916,0.928 -1.877,1.809 -0.961,0.881 -1.965,1.713 -1.003,0.832 -2.048,1.613 -1.044,0.781 -2.125,1.509 -1.082,0.728 -2.199,1.401 -1.117,0.673 -2.266,1.289 -1.149,0.617 -2.327,1.175 -1.178,0.558 -2.383,1.057 -1.249,0.528 -2.523,0.993 -1.273,0.466 -2.569,0.867 -1.295,0.401 -2.609,0.737 -1.313,0.337 -2.642,0.607 -1.329,0.27 -2.67,0.474 -1.34,0.204 -2.689,0.341 -1.349,0.137 -2.704,0.206 -1.354,0.07 -2.71,0.072 -1.356,0.002 -2.71,-0.064 -1.355,-0.065 -2.704,-0.198 -1.35,-0.133 -2.691,-0.333 -1.341,-0.2 -2.671,-0.467 -1.329,-0.267 -2.644,-0.599 -1.315,-0.332 -2.611,-0.73 -1.296,-0.397 -2.571,-0.859 -1.276,-0.462 -2.526,-0.986 -1.166,-0.501 -2.307,-1.058 -1.14,-0.557 -2.252,-1.17 -1.112,-0.613 -2.192,-1.279 -1.081,-0.666 -2.127,-1.385 -1.047,-0.719 -2.056,-1.488 -1.01,-0.769 -1.981,-1.586 -0.971,-0.818 -1.901,-1.682 -0.93,-0.864 -1.816,-1.773 -0.886,-0.909 -1.727,-1.86 -0.84,-0.951 -1.633,-1.943 -0.793,-0.991 -1.536,-2.02 -0.744,-1.029 -1.435,-2.093 -0.692,-1.064 -1.331,-2.161 -0.639,-1.097 -1.224,-2.224 -0.584,-1.127 -1.112,-2.281 -0.529,-1.154 -1,-2.333 c -2.31,-5.765 -5.75,-19.84 -3.322,-25.587 z"
     id="path77" />
  <path
     fill="#83cbd5"
     d="m 665.331,622.74511 c -0.189,-0.787 -0.345,-1.478 -0.406,-2.289 -0.671,-8.919 1.751,-17.299 7.467,-24.205 q 0.679,-0.832 1.399,-1.629 0.72,-0.797 1.48,-1.556 0.759,-0.759 1.556,-1.479 0.796,-0.72 1.628,-1.399 0.832,-0.679 1.698,-1.315 0.865,-0.637 1.761,-1.228 0.896,-0.592 1.821,-1.138 0.925,-0.545 1.877,-1.044 0.951,-0.498 1.926,-0.948 0.975,-0.45 1.972,-0.85 0.996,-0.4 2.012,-0.749 1.015,-0.349 2.047,-0.646 1.032,-0.298 2.078,-0.543 1.045,-0.245 2.102,-0.437 1.056,-0.192 2.121,-0.331 1.065,-0.138 2.136,-0.223 c 13.695,-1.205 23.32,2.757 33.672,11.486 l -1.537,0.641 c -5.146,-2.514 -10.586,-3.468 -16.12,-1.429 -5.448,2.007 -8.96,6.269 -12.094,10.905 -3.689,-5.65 -7.267,-9.906 -14.203,-11.481 -4.557,-1.035 -9.333,-0.53 -13.269,2.107 -5.366,3.595 -8.988,9.969 -10.104,16.249 -0.675,3.798 -0.481,7.624 -0.105,11.444 4.372,15.111 15.327,25.4 27.7,34.377 3.335,2.419 6.711,5.023 10.302,7.041 3.279,-1.565 6.421,-4.462 9.351,-6.655 11.499,-8.61 22.053,-17.295 27.387,-31.071 l 0.807,-0.41 c 0.229,-0.913 0.454,-1.822 0.71,-2.728 0.369,3.648 0.877,7.215 0.594,10.868 -0.027,0.349 0.018,0.681 0.053,1.024 -3.757,11.48 -11.593,19.501 -22.231,24.952 -4.904,2.514 -10.962,4.636 -16.538,4.273 q -0.944,0.041 -1.888,-0.006 c -10.698,-0.592 -22.232,-6.199 -29.261,-14.259 -5.529,-6.341 -10.524,-16.735 -9.901,-25.319 z"
     id="path78" />
  <path
     fill="#fefefe"
     d="m 705.927,602.33911 c 3.134,-4.636 6.646,-8.898 12.094,-10.905 5.534,-2.039 10.974,-1.085 16.12,1.429 5.845,5.224 9.484,10.702 9.933,18.839 0.247,4.473 -0.72,8.301 -1.088,12.648 -5.334,13.776 -15.888,22.461 -27.387,31.071 -2.93,2.193 -6.072,5.09 -9.351,6.655 -3.591,-2.018 -6.967,-4.622 -10.302,-7.041 -12.373,-8.977 -23.328,-19.266 -27.7,-34.377 -0.376,-3.82 -0.57,-7.646 0.105,-11.444 1.116,-6.28 4.738,-12.654 10.104,-16.249 3.936,-2.637 8.712,-3.142 13.269,-2.107 6.936,1.575 10.514,5.831 14.203,11.481 z"
     id="path79" />
  <path
     fill="#cdf8f0"
     d="m 363.965,621.97711 243.803,0.002 c -0.042,3.437 0.362,6.945 0.764,10.356 3.263,27.681 18.098,51.319 39.825,68.423 -3.856,2.005 -79.604,0.344 -89.111,0.241 q -81.964,-0.827 -163.928,0.026 -25.969,0.429 -51.942,0.513 c -6.642,0.039 -14.563,1.022 -21.025,-0.263 4.277,-3.201 8.451,-6.581 12.263,-10.331 q 0.86,-0.84 1.699,-1.701 0.839,-0.861 1.657,-1.742 0.817,-0.882 1.612,-1.783 0.796,-0.902 1.569,-1.822 0.773,-0.921 1.523,-1.86 0.75,-0.94 1.477,-1.898 0.727,-0.957 1.429,-1.933 0.703,-0.975 1.382,-1.967 0.678,-0.993 1.332,-2.002 0.654,-1.008 1.283,-2.033 0.629,-1.025 1.232,-2.064 0.603,-1.04 1.181,-2.095 0.577,-1.054 1.128,-2.122 0.552,-1.069 1.076,-2.15 0.525,-1.082 1.023,-2.176 0.498,-1.094 0.969,-2.201 0.47,-1.106 0.914,-2.223 0.443,-1.118 0.859,-2.246 0.415,-1.128 0.803,-2.266 0.388,-1.138 0.747,-2.285 0.36,-1.147 0.691,-2.303 0.331,-1.155 0.633,-2.319 0.303,-1.163 0.576,-2.334 0.274,-1.171 0.519,-2.348 0.245,-1.177 0.46,-2.359 0.216,-1.183 0.402,-2.371 0.186,-1.187 0.343,-2.379 0.157,-1.192 0.285,-2.388 0.127,-1.195 0.225,-2.393 0.098,-1.198 0.167,-2.398 0.068,-1.201 0.107,-2.402 0.039,-1.202 0.048,-2.404 z"
     id="path80" />
  <path
     fill="#fefefe"
     d="m 556.185,643.44011 c 1.511,-0.042 3.255,-0.232 4.528,0.757 1.078,0.838 1.142,1.333 1.361,2.581 -0.449,1.694 -0.993,2.424 -2.223,3.657 -1.266,0.235 -1.504,0.27 -2.708,-0.157 -1.072,-1.138 -1.814,-1.93 -2.066,-3.56 -0.243,-1.569 0.099,-2.159 1.108,-3.278 z"
     id="path81" />
  <path
     fill="#fefefe"
     d="m 452.279,654.16111 c 2.366,-0.148 4.561,-0.02 6.652,1.219 4.169,2.471 5.986,7.686 7.071,12.151 3.654,-2.524 7.576,-4.609 12.16,-4.381 2.856,0.142 5.564,1.295 7.366,3.57 1.7,2.146 2.295,5.109 1.998,7.789 -0.761,6.861 -6.209,10.76 -11.276,14.583 -4.178,2.537 -14.633,7.898 -19.587,6.792 -4.779,-3.204 -11.148,-16.103 -12.608,-21.758 -1.239,-4.801 -1.868,-11.239 0.914,-15.58 1.706,-2.664 4.3,-3.832 7.31,-4.385 z"
     id="path82" />
</svg>
